<mxfile host="app.diagrams.net" modified="2023-03-22T01:39:11.527Z" agent="5.0 (Windows NT 10.0; Win64; x64) AppleWebKit/537.36 (KHTML, like Gecko) Chrome/111.0.0.0 Safari/537.36" etag="zBaRTZNkfdPc4ddZoErz" version="21.0.10" type="github">
  <diagram name="Page-1" id="_B4BeU5DoNyazo_gWRnJ">
    <mxGraphModel dx="2206" dy="1235" grid="1" gridSize="10" guides="0" tooltips="1" connect="1" arrows="1" fold="1" page="1" pageScale="1" pageWidth="1400" pageHeight="1100" math="1" shadow="0">
      <root>
        <mxCell id="0" />
        <mxCell id="1" parent="0" />
        <mxCell id="KX2G0ClOtOz7CE5KhIWY-155" value="" style="rounded=1;whiteSpace=wrap;html=1;fillColor=none;movable=1;resizable=1;rotatable=1;deletable=1;editable=1;locked=0;connectable=1;strokeWidth=2;" parent="1" vertex="1">
          <mxGeometry x="760" y="520" width="280" height="130" as="geometry" />
        </mxCell>
        <mxCell id="ciVCbVhhYI-BDBuRR6O5-1" value="" style="shape=cube;whiteSpace=wrap;html=1;boundedLbl=1;backgroundOutline=1;darkOpacity=0.05;darkOpacity2=0.1;" parent="1" vertex="1">
          <mxGeometry x="298.12" y="500" width="65" height="60" as="geometry" />
        </mxCell>
        <mxCell id="ciVCbVhhYI-BDBuRR6O5-2" value="" style="shape=cube;whiteSpace=wrap;html=1;boundedLbl=1;backgroundOutline=1;darkOpacity=0.05;darkOpacity2=0.1;" parent="1" vertex="1">
          <mxGeometry x="298.12" y="580" width="65" height="60" as="geometry" />
        </mxCell>
        <mxCell id="ciVCbVhhYI-BDBuRR6O5-4" value="&lt;b&gt;&lt;font style=&quot;font-size: 48px;&quot; face=&quot;Times New Roman&quot;&gt;Self Play&lt;br&gt;&lt;/font&gt;&lt;/b&gt;" style="text;html=1;strokeColor=none;fillColor=none;align=center;verticalAlign=middle;whiteSpace=wrap;rounded=0;" parent="1" vertex="1">
          <mxGeometry x="480" y="340" width="200" height="70" as="geometry" />
        </mxCell>
        <mxCell id="ciVCbVhhYI-BDBuRR6O5-5" value="&lt;font size=&quot;5&quot; face=&quot;Times New Roman&quot;&gt;&lt;b&gt;Training  Example&amp;nbsp;&lt;/b&gt;&lt;/font&gt;" style="text;html=1;strokeColor=none;fillColor=none;align=center;verticalAlign=middle;whiteSpace=wrap;rounded=0;" parent="1" vertex="1">
          <mxGeometry x="1140" y="420" width="210" height="20" as="geometry" />
        </mxCell>
        <mxCell id="ciVCbVhhYI-BDBuRR6O5-6" value="&lt;b&gt;&lt;font style=&quot;font-size: 24px;&quot; face=&quot;Times New Roman&quot;&gt;Augment with symmetries&lt;/font&gt;&lt;/b&gt;" style="text;html=1;strokeColor=none;fillColor=none;align=center;verticalAlign=middle;whiteSpace=wrap;rounded=0;" parent="1" vertex="1">
          <mxGeometry x="1370" y="700" width="160" height="40" as="geometry" />
        </mxCell>
        <mxCell id="ciVCbVhhYI-BDBuRR6O5-11" value="" style="rounded=0;whiteSpace=wrap;html=1;fillColor=none;strokeWidth=2;" parent="1" vertex="1">
          <mxGeometry x="290" y="490" width="80" height="320" as="geometry" />
        </mxCell>
        <mxCell id="ciVCbVhhYI-BDBuRR6O5-9" value="" style="shape=cube;whiteSpace=wrap;html=1;boundedLbl=1;backgroundOutline=1;darkOpacity=0.05;darkOpacity2=0.1;" parent="1" vertex="1">
          <mxGeometry x="298.12" y="660" width="65" height="60" as="geometry" />
        </mxCell>
        <mxCell id="ciVCbVhhYI-BDBuRR6O5-12" value="&lt;b&gt;&lt;font style=&quot;font-size: 24px;&quot; face=&quot;Times New Roman&quot;&gt;Neural Networks&lt;/font&gt;&lt;/b&gt;" style="text;html=1;strokeColor=none;fillColor=none;align=center;verticalAlign=middle;whiteSpace=wrap;rounded=0;" parent="1" vertex="1">
          <mxGeometry x="230" y="440" width="201.25" height="40" as="geometry" />
        </mxCell>
        <mxCell id="ciVCbVhhYI-BDBuRR6O5-14" value="" style="shape=cube;whiteSpace=wrap;html=1;boundedLbl=1;backgroundOutline=1;darkOpacity=0.05;darkOpacity2=0.1;" parent="1" vertex="1">
          <mxGeometry x="298.12" y="740" width="65" height="60" as="geometry" />
        </mxCell>
        <mxCell id="ciVCbVhhYI-BDBuRR6O5-15" value="&lt;b&gt;&lt;font style=&quot;font-size: 24px;&quot; face=&quot;Times New Roman&quot;&gt;A1&lt;/font&gt;&lt;/b&gt;" style="text;html=1;strokeColor=none;fillColor=none;align=center;verticalAlign=middle;whiteSpace=wrap;rounded=0;" parent="1" vertex="1">
          <mxGeometry x="310.62" y="510" width="60" height="40" as="geometry" />
        </mxCell>
        <mxCell id="ciVCbVhhYI-BDBuRR6O5-16" value="&lt;font size=&quot;5&quot; face=&quot;Times New Roman&quot;&gt;&lt;b&gt;A2&lt;/b&gt;&lt;/font&gt;" style="text;html=1;strokeColor=none;fillColor=none;align=center;verticalAlign=middle;whiteSpace=wrap;rounded=0;" parent="1" vertex="1">
          <mxGeometry x="310.62" y="590" width="60" height="40" as="geometry" />
        </mxCell>
        <mxCell id="ciVCbVhhYI-BDBuRR6O5-17" value="&lt;font size=&quot;5&quot; face=&quot;Times New Roman&quot;&gt;&lt;b&gt;B1&lt;/b&gt;&lt;/font&gt;" style="text;html=1;strokeColor=none;fillColor=none;align=center;verticalAlign=middle;whiteSpace=wrap;rounded=0;" parent="1" vertex="1">
          <mxGeometry x="310.62" y="670" width="60" height="40" as="geometry" />
        </mxCell>
        <mxCell id="ciVCbVhhYI-BDBuRR6O5-18" value="&lt;font size=&quot;5&quot; face=&quot;Times New Roman&quot;&gt;&lt;b&gt;B2&lt;/b&gt;&lt;/font&gt;" style="text;html=1;strokeColor=none;fillColor=none;align=center;verticalAlign=middle;whiteSpace=wrap;rounded=0;" parent="1" vertex="1">
          <mxGeometry x="310.62" y="750" width="60" height="40" as="geometry" />
        </mxCell>
        <mxCell id="ciVCbVhhYI-BDBuRR6O5-20" value="" style="endArrow=classic;html=1;rounded=0;fontFamily=Helvetica;fontSize=12;fontColor=default;strokeWidth=4;" parent="1" edge="1">
          <mxGeometry width="50" height="50" relative="1" as="geometry">
            <mxPoint x="380" y="650" as="sourcePoint" />
            <mxPoint x="460" y="650" as="targetPoint" />
          </mxGeometry>
        </mxCell>
        <mxCell id="KX2G0ClOtOz7CE5KhIWY-158" style="edgeStyle=orthogonalEdgeStyle;rounded=0;orthogonalLoop=1;jettySize=auto;html=1;entryX=0.429;entryY=1;entryDx=0;entryDy=0;entryPerimeter=0;curved=1;exitX=0;exitY=0;exitDx=42.5;exitDy=60;exitPerimeter=0;strokeWidth=2;" parent="1" source="ciVCbVhhYI-BDBuRR6O5-22" target="KX2G0ClOtOz7CE5KhIWY-154" edge="1">
          <mxGeometry relative="1" as="geometry">
            <Array as="points">
              <mxPoint x="990" y="620" />
              <mxPoint x="800" y="620" />
            </Array>
          </mxGeometry>
        </mxCell>
        <mxCell id="ciVCbVhhYI-BDBuRR6O5-22" value="" style="shape=cube;whiteSpace=wrap;html=1;boundedLbl=1;backgroundOutline=1;darkOpacity=0.05;darkOpacity2=0.1;" parent="1" vertex="1">
          <mxGeometry x="947.5" y="540" width="65" height="60" as="geometry" />
        </mxCell>
        <mxCell id="ciVCbVhhYI-BDBuRR6O5-23" value="&lt;font size=&quot;5&quot; face=&quot;Times New Roman&quot;&gt;&lt;b&gt;â€¦&lt;/b&gt;&lt;/font&gt;" style="text;html=1;strokeColor=none;fillColor=none;align=center;verticalAlign=middle;whiteSpace=wrap;rounded=0;" parent="1" vertex="1">
          <mxGeometry x="960" y="550" width="60" height="40" as="geometry" />
        </mxCell>
        <mxCell id="ciVCbVhhYI-BDBuRR6O5-24" value="" style="whiteSpace=wrap;html=1;aspect=fixed;rounded=0;strokeColor=default;fontFamily=Helvetica;fontSize=12;fontColor=default;fillColor=none;" parent="1" vertex="1">
          <mxGeometry x="500" y="490" width="20" height="20" as="geometry" />
        </mxCell>
        <mxCell id="ciVCbVhhYI-BDBuRR6O5-25" value="" style="whiteSpace=wrap;html=1;aspect=fixed;rounded=0;strokeColor=default;fontFamily=Helvetica;fontSize=12;fontColor=default;fillColor=none;" parent="1" vertex="1">
          <mxGeometry x="520" y="490" width="20" height="20" as="geometry" />
        </mxCell>
        <mxCell id="ciVCbVhhYI-BDBuRR6O5-26" value="" style="whiteSpace=wrap;html=1;aspect=fixed;rounded=0;strokeColor=default;fontFamily=Helvetica;fontSize=12;fontColor=default;fillColor=none;" parent="1" vertex="1">
          <mxGeometry x="540" y="490" width="20" height="20" as="geometry" />
        </mxCell>
        <mxCell id="ciVCbVhhYI-BDBuRR6O5-27" value="" style="whiteSpace=wrap;html=1;aspect=fixed;rounded=0;strokeColor=default;fontFamily=Helvetica;fontSize=12;fontColor=default;fillColor=none;" parent="1" vertex="1">
          <mxGeometry x="560" y="490" width="20" height="20" as="geometry" />
        </mxCell>
        <mxCell id="ciVCbVhhYI-BDBuRR6O5-28" value="" style="whiteSpace=wrap;html=1;aspect=fixed;rounded=0;strokeColor=default;fontFamily=Helvetica;fontSize=12;fontColor=default;fillColor=none;" parent="1" vertex="1">
          <mxGeometry x="580" y="490" width="20" height="20" as="geometry" />
        </mxCell>
        <mxCell id="ciVCbVhhYI-BDBuRR6O5-29" value="" style="whiteSpace=wrap;html=1;aspect=fixed;rounded=0;strokeColor=default;fontFamily=Helvetica;fontSize=12;fontColor=default;fillColor=none;" parent="1" vertex="1">
          <mxGeometry x="600" y="490" width="20" height="20" as="geometry" />
        </mxCell>
        <mxCell id="ciVCbVhhYI-BDBuRR6O5-30" value="" style="whiteSpace=wrap;html=1;aspect=fixed;rounded=0;strokeColor=default;fontFamily=Helvetica;fontSize=12;fontColor=default;fillColor=none;" parent="1" vertex="1">
          <mxGeometry x="620" y="490" width="20" height="20" as="geometry" />
        </mxCell>
        <mxCell id="ciVCbVhhYI-BDBuRR6O5-31" value="" style="whiteSpace=wrap;html=1;aspect=fixed;rounded=0;strokeColor=default;fontFamily=Helvetica;fontSize=12;fontColor=default;fillColor=none;" parent="1" vertex="1">
          <mxGeometry x="640" y="490" width="20" height="20" as="geometry" />
        </mxCell>
        <mxCell id="ciVCbVhhYI-BDBuRR6O5-40" value="" style="whiteSpace=wrap;html=1;aspect=fixed;rounded=0;strokeColor=default;fontFamily=Helvetica;fontSize=12;fontColor=default;fillColor=none;" parent="1" vertex="1">
          <mxGeometry x="500" y="510" width="20" height="20" as="geometry" />
        </mxCell>
        <mxCell id="ciVCbVhhYI-BDBuRR6O5-41" value="" style="whiteSpace=wrap;html=1;aspect=fixed;rounded=0;strokeColor=default;fontFamily=Helvetica;fontSize=12;fontColor=default;fillColor=none;" parent="1" vertex="1">
          <mxGeometry x="520" y="510" width="20" height="20" as="geometry" />
        </mxCell>
        <mxCell id="ciVCbVhhYI-BDBuRR6O5-42" value="" style="whiteSpace=wrap;html=1;aspect=fixed;rounded=0;strokeColor=default;fontFamily=Helvetica;fontSize=12;fontColor=default;fillColor=none;" parent="1" vertex="1">
          <mxGeometry x="540" y="510" width="20" height="20" as="geometry" />
        </mxCell>
        <mxCell id="ciVCbVhhYI-BDBuRR6O5-43" value="" style="whiteSpace=wrap;html=1;aspect=fixed;rounded=0;strokeColor=default;fontFamily=Helvetica;fontSize=12;fontColor=default;fillColor=none;" parent="1" vertex="1">
          <mxGeometry x="560" y="510" width="20" height="20" as="geometry" />
        </mxCell>
        <mxCell id="ciVCbVhhYI-BDBuRR6O5-44" value="" style="whiteSpace=wrap;html=1;aspect=fixed;rounded=0;strokeColor=default;fontFamily=Helvetica;fontSize=12;fontColor=default;fillColor=none;" parent="1" vertex="1">
          <mxGeometry x="580" y="510" width="20" height="20" as="geometry" />
        </mxCell>
        <mxCell id="ciVCbVhhYI-BDBuRR6O5-45" value="" style="whiteSpace=wrap;html=1;aspect=fixed;rounded=0;strokeColor=default;fontFamily=Helvetica;fontSize=12;fontColor=default;fillColor=none;" parent="1" vertex="1">
          <mxGeometry x="600" y="510" width="20" height="20" as="geometry" />
        </mxCell>
        <mxCell id="ciVCbVhhYI-BDBuRR6O5-46" value="" style="whiteSpace=wrap;html=1;aspect=fixed;rounded=0;strokeColor=default;fontFamily=Helvetica;fontSize=12;fontColor=default;fillColor=none;" parent="1" vertex="1">
          <mxGeometry x="620" y="510" width="20" height="20" as="geometry" />
        </mxCell>
        <mxCell id="ciVCbVhhYI-BDBuRR6O5-47" value="" style="whiteSpace=wrap;html=1;aspect=fixed;rounded=0;strokeColor=default;fontFamily=Helvetica;fontSize=12;fontColor=default;fillColor=none;" parent="1" vertex="1">
          <mxGeometry x="640" y="510" width="20" height="20" as="geometry" />
        </mxCell>
        <mxCell id="ciVCbVhhYI-BDBuRR6O5-48" value="" style="whiteSpace=wrap;html=1;aspect=fixed;rounded=0;strokeColor=default;fontFamily=Helvetica;fontSize=12;fontColor=default;fillColor=none;" parent="1" vertex="1">
          <mxGeometry x="500" y="530" width="20" height="20" as="geometry" />
        </mxCell>
        <mxCell id="ciVCbVhhYI-BDBuRR6O5-49" value="" style="whiteSpace=wrap;html=1;aspect=fixed;rounded=0;strokeColor=default;fontFamily=Helvetica;fontSize=12;fontColor=default;fillColor=none;" parent="1" vertex="1">
          <mxGeometry x="520" y="530" width="20" height="20" as="geometry" />
        </mxCell>
        <mxCell id="ciVCbVhhYI-BDBuRR6O5-50" value="" style="whiteSpace=wrap;html=1;aspect=fixed;rounded=0;strokeColor=default;fontFamily=Helvetica;fontSize=12;fontColor=default;fillColor=none;" parent="1" vertex="1">
          <mxGeometry x="540" y="530" width="20" height="20" as="geometry" />
        </mxCell>
        <mxCell id="ciVCbVhhYI-BDBuRR6O5-51" value="" style="whiteSpace=wrap;html=1;aspect=fixed;rounded=0;strokeColor=default;fontFamily=Helvetica;fontSize=12;fontColor=default;fillColor=none;" parent="1" vertex="1">
          <mxGeometry x="560" y="530" width="20" height="20" as="geometry" />
        </mxCell>
        <mxCell id="ciVCbVhhYI-BDBuRR6O5-52" value="" style="whiteSpace=wrap;html=1;aspect=fixed;rounded=0;strokeColor=default;fontFamily=Helvetica;fontSize=12;fontColor=default;fillColor=none;" parent="1" vertex="1">
          <mxGeometry x="580" y="530" width="20" height="20" as="geometry" />
        </mxCell>
        <mxCell id="ciVCbVhhYI-BDBuRR6O5-53" value="" style="whiteSpace=wrap;html=1;aspect=fixed;rounded=0;strokeColor=default;fontFamily=Helvetica;fontSize=12;fontColor=default;fillColor=none;" parent="1" vertex="1">
          <mxGeometry x="600" y="530" width="20" height="20" as="geometry" />
        </mxCell>
        <mxCell id="ciVCbVhhYI-BDBuRR6O5-54" value="" style="whiteSpace=wrap;html=1;aspect=fixed;rounded=0;strokeColor=default;fontFamily=Helvetica;fontSize=12;fontColor=default;fillColor=none;" parent="1" vertex="1">
          <mxGeometry x="620" y="530" width="20" height="20" as="geometry" />
        </mxCell>
        <mxCell id="ciVCbVhhYI-BDBuRR6O5-55" value="" style="whiteSpace=wrap;html=1;aspect=fixed;rounded=0;strokeColor=default;fontFamily=Helvetica;fontSize=12;fontColor=default;fillColor=none;" parent="1" vertex="1">
          <mxGeometry x="640" y="530" width="20" height="20" as="geometry" />
        </mxCell>
        <mxCell id="ciVCbVhhYI-BDBuRR6O5-80" value="" style="whiteSpace=wrap;html=1;aspect=fixed;rounded=0;strokeColor=default;fontFamily=Helvetica;fontSize=12;fontColor=default;fillColor=none;" parent="1" vertex="1">
          <mxGeometry x="500" y="550" width="20" height="20" as="geometry" />
        </mxCell>
        <mxCell id="ciVCbVhhYI-BDBuRR6O5-81" value="" style="whiteSpace=wrap;html=1;aspect=fixed;rounded=0;strokeColor=default;fontFamily=Helvetica;fontSize=12;fontColor=default;fillColor=none;" parent="1" vertex="1">
          <mxGeometry x="520" y="550" width="20" height="20" as="geometry" />
        </mxCell>
        <mxCell id="ciVCbVhhYI-BDBuRR6O5-82" value="" style="whiteSpace=wrap;html=1;aspect=fixed;rounded=0;strokeColor=default;fontFamily=Helvetica;fontSize=12;fontColor=default;fillColor=none;" parent="1" vertex="1">
          <mxGeometry x="540" y="550" width="20" height="20" as="geometry" />
        </mxCell>
        <mxCell id="ciVCbVhhYI-BDBuRR6O5-83" value="" style="whiteSpace=wrap;html=1;aspect=fixed;rounded=0;strokeColor=default;fontFamily=Helvetica;fontSize=12;fontColor=default;fillColor=none;" parent="1" vertex="1">
          <mxGeometry x="560" y="550" width="20" height="20" as="geometry" />
        </mxCell>
        <mxCell id="ciVCbVhhYI-BDBuRR6O5-84" value="" style="whiteSpace=wrap;html=1;aspect=fixed;rounded=0;strokeColor=default;fontFamily=Helvetica;fontSize=12;fontColor=default;fillColor=none;" parent="1" vertex="1">
          <mxGeometry x="580" y="550" width="20" height="20" as="geometry" />
        </mxCell>
        <mxCell id="ciVCbVhhYI-BDBuRR6O5-85" value="" style="whiteSpace=wrap;html=1;aspect=fixed;rounded=0;strokeColor=default;fontFamily=Helvetica;fontSize=12;fontColor=default;fillColor=none;" parent="1" vertex="1">
          <mxGeometry x="600" y="550" width="20" height="20" as="geometry" />
        </mxCell>
        <mxCell id="ciVCbVhhYI-BDBuRR6O5-86" value="" style="whiteSpace=wrap;html=1;aspect=fixed;rounded=0;strokeColor=default;fontFamily=Helvetica;fontSize=12;fontColor=default;fillColor=none;" parent="1" vertex="1">
          <mxGeometry x="620" y="550" width="20" height="20" as="geometry" />
        </mxCell>
        <mxCell id="ciVCbVhhYI-BDBuRR6O5-87" value="" style="whiteSpace=wrap;html=1;aspect=fixed;rounded=0;strokeColor=default;fontFamily=Helvetica;fontSize=12;fontColor=default;fillColor=none;" parent="1" vertex="1">
          <mxGeometry x="640" y="550" width="20" height="20" as="geometry" />
        </mxCell>
        <mxCell id="ciVCbVhhYI-BDBuRR6O5-216" value="" style="whiteSpace=wrap;html=1;aspect=fixed;rounded=0;strokeColor=default;fontFamily=Helvetica;fontSize=12;fontColor=default;fillColor=none;" parent="1" vertex="1">
          <mxGeometry x="500" y="570" width="20" height="20" as="geometry" />
        </mxCell>
        <mxCell id="ciVCbVhhYI-BDBuRR6O5-217" value="" style="whiteSpace=wrap;html=1;aspect=fixed;rounded=0;strokeColor=default;fontFamily=Helvetica;fontSize=12;fontColor=default;fillColor=none;" parent="1" vertex="1">
          <mxGeometry x="520" y="570" width="20" height="20" as="geometry" />
        </mxCell>
        <mxCell id="ciVCbVhhYI-BDBuRR6O5-218" value="" style="whiteSpace=wrap;html=1;aspect=fixed;rounded=0;strokeColor=default;fontFamily=Helvetica;fontSize=12;fontColor=default;fillColor=none;" parent="1" vertex="1">
          <mxGeometry x="540" y="570" width="20" height="20" as="geometry" />
        </mxCell>
        <mxCell id="ciVCbVhhYI-BDBuRR6O5-219" value="" style="whiteSpace=wrap;html=1;aspect=fixed;rounded=0;strokeColor=default;fontFamily=Helvetica;fontSize=12;fontColor=default;fillColor=none;" parent="1" vertex="1">
          <mxGeometry x="560" y="570" width="20" height="20" as="geometry" />
        </mxCell>
        <mxCell id="ciVCbVhhYI-BDBuRR6O5-220" value="" style="whiteSpace=wrap;html=1;aspect=fixed;rounded=0;strokeColor=default;fontFamily=Helvetica;fontSize=12;fontColor=default;fillColor=none;" parent="1" vertex="1">
          <mxGeometry x="580" y="570" width="20" height="20" as="geometry" />
        </mxCell>
        <mxCell id="ciVCbVhhYI-BDBuRR6O5-221" value="" style="whiteSpace=wrap;html=1;aspect=fixed;rounded=0;strokeColor=default;fontFamily=Helvetica;fontSize=12;fontColor=default;fillColor=none;" parent="1" vertex="1">
          <mxGeometry x="600" y="570" width="20" height="20" as="geometry" />
        </mxCell>
        <mxCell id="ciVCbVhhYI-BDBuRR6O5-222" value="" style="whiteSpace=wrap;html=1;aspect=fixed;rounded=0;strokeColor=default;fontFamily=Helvetica;fontSize=12;fontColor=default;fillColor=none;" parent="1" vertex="1">
          <mxGeometry x="620" y="570" width="20" height="20" as="geometry" />
        </mxCell>
        <mxCell id="ciVCbVhhYI-BDBuRR6O5-223" value="" style="whiteSpace=wrap;html=1;aspect=fixed;rounded=0;strokeColor=default;fontFamily=Helvetica;fontSize=12;fontColor=default;fillColor=none;" parent="1" vertex="1">
          <mxGeometry x="640" y="570" width="20" height="20" as="geometry" />
        </mxCell>
        <mxCell id="ciVCbVhhYI-BDBuRR6O5-224" value="" style="whiteSpace=wrap;html=1;aspect=fixed;rounded=0;strokeColor=default;fontFamily=Helvetica;fontSize=12;fontColor=default;fillColor=none;" parent="1" vertex="1">
          <mxGeometry x="500" y="590" width="20" height="20" as="geometry" />
        </mxCell>
        <mxCell id="ciVCbVhhYI-BDBuRR6O5-225" value="" style="whiteSpace=wrap;html=1;aspect=fixed;rounded=0;strokeColor=default;fontFamily=Helvetica;fontSize=12;fontColor=default;fillColor=none;" parent="1" vertex="1">
          <mxGeometry x="520" y="590" width="20" height="20" as="geometry" />
        </mxCell>
        <mxCell id="ciVCbVhhYI-BDBuRR6O5-226" value="" style="whiteSpace=wrap;html=1;aspect=fixed;rounded=0;strokeColor=default;fontFamily=Helvetica;fontSize=12;fontColor=default;fillColor=none;" parent="1" vertex="1">
          <mxGeometry x="540" y="590" width="20" height="20" as="geometry" />
        </mxCell>
        <mxCell id="ciVCbVhhYI-BDBuRR6O5-227" value="" style="whiteSpace=wrap;html=1;aspect=fixed;rounded=0;strokeColor=default;fontFamily=Helvetica;fontSize=12;fontColor=default;fillColor=none;" parent="1" vertex="1">
          <mxGeometry x="560" y="590" width="20" height="20" as="geometry" />
        </mxCell>
        <mxCell id="ciVCbVhhYI-BDBuRR6O5-228" value="" style="whiteSpace=wrap;html=1;aspect=fixed;rounded=0;strokeColor=default;fontFamily=Helvetica;fontSize=12;fontColor=default;fillColor=none;" parent="1" vertex="1">
          <mxGeometry x="580" y="590" width="20" height="20" as="geometry" />
        </mxCell>
        <mxCell id="ciVCbVhhYI-BDBuRR6O5-229" value="" style="whiteSpace=wrap;html=1;aspect=fixed;rounded=0;strokeColor=default;fontFamily=Helvetica;fontSize=12;fontColor=default;fillColor=none;" parent="1" vertex="1">
          <mxGeometry x="600" y="590" width="20" height="20" as="geometry" />
        </mxCell>
        <mxCell id="ciVCbVhhYI-BDBuRR6O5-230" value="" style="whiteSpace=wrap;html=1;aspect=fixed;rounded=0;strokeColor=default;fontFamily=Helvetica;fontSize=12;fontColor=default;fillColor=none;" parent="1" vertex="1">
          <mxGeometry x="620" y="590" width="20" height="20" as="geometry" />
        </mxCell>
        <mxCell id="ciVCbVhhYI-BDBuRR6O5-231" value="" style="whiteSpace=wrap;html=1;aspect=fixed;rounded=0;strokeColor=default;fontFamily=Helvetica;fontSize=12;fontColor=default;fillColor=none;" parent="1" vertex="1">
          <mxGeometry x="640" y="590" width="20" height="20" as="geometry" />
        </mxCell>
        <mxCell id="ciVCbVhhYI-BDBuRR6O5-232" value="" style="whiteSpace=wrap;html=1;aspect=fixed;rounded=0;strokeColor=default;fontFamily=Helvetica;fontSize=12;fontColor=default;fillColor=none;" parent="1" vertex="1">
          <mxGeometry x="500" y="610" width="20" height="20" as="geometry" />
        </mxCell>
        <mxCell id="ciVCbVhhYI-BDBuRR6O5-233" value="" style="whiteSpace=wrap;html=1;aspect=fixed;rounded=0;strokeColor=default;fontFamily=Helvetica;fontSize=12;fontColor=default;fillColor=none;" parent="1" vertex="1">
          <mxGeometry x="520" y="610" width="20" height="20" as="geometry" />
        </mxCell>
        <mxCell id="ciVCbVhhYI-BDBuRR6O5-234" value="" style="whiteSpace=wrap;html=1;aspect=fixed;rounded=0;strokeColor=default;fontFamily=Helvetica;fontSize=12;fontColor=default;fillColor=none;" parent="1" vertex="1">
          <mxGeometry x="540" y="610" width="20" height="20" as="geometry" />
        </mxCell>
        <mxCell id="ciVCbVhhYI-BDBuRR6O5-235" value="" style="whiteSpace=wrap;html=1;aspect=fixed;rounded=0;strokeColor=default;fontFamily=Helvetica;fontSize=12;fontColor=default;fillColor=none;" parent="1" vertex="1">
          <mxGeometry x="560" y="610" width="20" height="20" as="geometry" />
        </mxCell>
        <mxCell id="ciVCbVhhYI-BDBuRR6O5-236" value="" style="whiteSpace=wrap;html=1;aspect=fixed;rounded=0;strokeColor=default;fontFamily=Helvetica;fontSize=12;fontColor=default;fillColor=none;" parent="1" vertex="1">
          <mxGeometry x="580" y="610" width="20" height="20" as="geometry" />
        </mxCell>
        <mxCell id="ciVCbVhhYI-BDBuRR6O5-237" value="" style="whiteSpace=wrap;html=1;aspect=fixed;rounded=0;strokeColor=default;fontFamily=Helvetica;fontSize=12;fontColor=default;fillColor=none;" parent="1" vertex="1">
          <mxGeometry x="600" y="610" width="20" height="20" as="geometry" />
        </mxCell>
        <mxCell id="ciVCbVhhYI-BDBuRR6O5-238" value="" style="whiteSpace=wrap;html=1;aspect=fixed;rounded=0;strokeColor=default;fontFamily=Helvetica;fontSize=12;fontColor=default;fillColor=none;" parent="1" vertex="1">
          <mxGeometry x="620" y="610" width="20" height="20" as="geometry" />
        </mxCell>
        <mxCell id="ciVCbVhhYI-BDBuRR6O5-239" value="" style="whiteSpace=wrap;html=1;aspect=fixed;rounded=0;strokeColor=default;fontFamily=Helvetica;fontSize=12;fontColor=default;fillColor=none;" parent="1" vertex="1">
          <mxGeometry x="640" y="610" width="20" height="20" as="geometry" />
        </mxCell>
        <mxCell id="ciVCbVhhYI-BDBuRR6O5-240" value="" style="whiteSpace=wrap;html=1;aspect=fixed;rounded=0;strokeColor=default;fontFamily=Helvetica;fontSize=12;fontColor=default;fillColor=none;" parent="1" vertex="1">
          <mxGeometry x="500" y="630" width="20" height="20" as="geometry" />
        </mxCell>
        <mxCell id="ciVCbVhhYI-BDBuRR6O5-241" value="" style="whiteSpace=wrap;html=1;aspect=fixed;rounded=0;strokeColor=default;fontFamily=Helvetica;fontSize=12;fontColor=default;fillColor=none;" parent="1" vertex="1">
          <mxGeometry x="520" y="630" width="20" height="20" as="geometry" />
        </mxCell>
        <mxCell id="ciVCbVhhYI-BDBuRR6O5-242" value="" style="whiteSpace=wrap;html=1;aspect=fixed;rounded=0;strokeColor=default;fontFamily=Helvetica;fontSize=12;fontColor=default;fillColor=none;" parent="1" vertex="1">
          <mxGeometry x="540" y="630" width="20" height="20" as="geometry" />
        </mxCell>
        <mxCell id="ciVCbVhhYI-BDBuRR6O5-243" value="" style="whiteSpace=wrap;html=1;aspect=fixed;rounded=0;strokeColor=default;fontFamily=Helvetica;fontSize=12;fontColor=default;fillColor=none;" parent="1" vertex="1">
          <mxGeometry x="560" y="630" width="20" height="20" as="geometry" />
        </mxCell>
        <mxCell id="ciVCbVhhYI-BDBuRR6O5-244" value="" style="whiteSpace=wrap;html=1;aspect=fixed;rounded=0;strokeColor=default;fontFamily=Helvetica;fontSize=12;fontColor=default;fillColor=none;" parent="1" vertex="1">
          <mxGeometry x="580" y="630" width="20" height="20" as="geometry" />
        </mxCell>
        <mxCell id="ciVCbVhhYI-BDBuRR6O5-245" value="" style="whiteSpace=wrap;html=1;aspect=fixed;rounded=0;strokeColor=default;fontFamily=Helvetica;fontSize=12;fontColor=default;fillColor=none;" parent="1" vertex="1">
          <mxGeometry x="600" y="630" width="20" height="20" as="geometry" />
        </mxCell>
        <mxCell id="ciVCbVhhYI-BDBuRR6O5-246" value="" style="whiteSpace=wrap;html=1;aspect=fixed;rounded=0;strokeColor=default;fontFamily=Helvetica;fontSize=12;fontColor=default;fillColor=none;" parent="1" vertex="1">
          <mxGeometry x="620" y="630" width="20" height="20" as="geometry" />
        </mxCell>
        <mxCell id="ciVCbVhhYI-BDBuRR6O5-247" value="" style="whiteSpace=wrap;html=1;aspect=fixed;rounded=0;strokeColor=default;fontFamily=Helvetica;fontSize=12;fontColor=default;fillColor=none;" parent="1" vertex="1">
          <mxGeometry x="640" y="630" width="20" height="20" as="geometry" />
        </mxCell>
        <mxCell id="ciVCbVhhYI-BDBuRR6O5-250" value="" style="ellipse;whiteSpace=wrap;html=1;aspect=fixed;rounded=0;strokeColor=default;fontFamily=Helvetica;fontSize=12;fontColor=default;fillColor=#000000;" parent="1" vertex="1">
          <mxGeometry x="562.5" y="552" width="15" height="15" as="geometry" />
        </mxCell>
        <mxCell id="ciVCbVhhYI-BDBuRR6O5-251" value="" style="ellipse;whiteSpace=wrap;html=1;aspect=fixed;rounded=0;strokeColor=default;fontFamily=Helvetica;fontSize=12;fontColor=default;fillColor=none;" parent="1" vertex="1">
          <mxGeometry x="150" y="1010" width="15" height="15" as="geometry" />
        </mxCell>
        <mxCell id="ciVCbVhhYI-BDBuRR6O5-252" value="" style="ellipse;whiteSpace=wrap;html=1;aspect=fixed;rounded=0;strokeColor=default;fontFamily=Helvetica;fontSize=12;fontColor=default;fillColor=#000000;" parent="1" vertex="1">
          <mxGeometry x="582.5" y="572.5" width="15" height="15" as="geometry" />
        </mxCell>
        <mxCell id="ciVCbVhhYI-BDBuRR6O5-253" value="" style="ellipse;whiteSpace=wrap;html=1;aspect=fixed;rounded=0;strokeColor=default;fontFamily=Helvetica;fontSize=12;fontColor=default;fillColor=none;" parent="1" vertex="1">
          <mxGeometry x="562.5" y="572.5" width="15" height="15" as="geometry" />
        </mxCell>
        <mxCell id="ciVCbVhhYI-BDBuRR6O5-254" value="" style="ellipse;whiteSpace=wrap;html=1;aspect=fixed;rounded=0;strokeColor=default;fontFamily=Helvetica;fontSize=12;fontColor=default;fillColor=none;" parent="1" vertex="1">
          <mxGeometry x="582.5" y="552.5" width="15" height="15" as="geometry" />
        </mxCell>
        <mxCell id="KX2G0ClOtOz7CE5KhIWY-3" value="" style="whiteSpace=wrap;html=1;aspect=fixed;rounded=0;strokeColor=default;fontFamily=Helvetica;fontSize=12;fontColor=default;fillColor=none;" parent="1" vertex="1">
          <mxGeometry x="1340" y="490" width="20" height="20" as="geometry" />
        </mxCell>
        <mxCell id="KX2G0ClOtOz7CE5KhIWY-4" value="" style="whiteSpace=wrap;html=1;aspect=fixed;rounded=0;strokeColor=default;fontFamily=Helvetica;fontSize=12;fontColor=default;fillColor=none;" parent="1" vertex="1">
          <mxGeometry x="1360" y="490" width="20" height="20" as="geometry" />
        </mxCell>
        <mxCell id="KX2G0ClOtOz7CE5KhIWY-5" value="" style="whiteSpace=wrap;html=1;aspect=fixed;rounded=0;strokeColor=default;fontFamily=Helvetica;fontSize=12;fontColor=default;fillColor=none;" parent="1" vertex="1">
          <mxGeometry x="1380" y="490" width="20" height="20" as="geometry" />
        </mxCell>
        <mxCell id="KX2G0ClOtOz7CE5KhIWY-6" value="" style="whiteSpace=wrap;html=1;aspect=fixed;rounded=0;strokeColor=default;fontFamily=Helvetica;fontSize=12;fontColor=default;fillColor=none;" parent="1" vertex="1">
          <mxGeometry x="1400" y="490" width="20" height="20" as="geometry" />
        </mxCell>
        <mxCell id="KX2G0ClOtOz7CE5KhIWY-7" value="" style="whiteSpace=wrap;html=1;aspect=fixed;rounded=0;strokeColor=default;fontFamily=Helvetica;fontSize=12;fontColor=default;fillColor=none;" parent="1" vertex="1">
          <mxGeometry x="1420" y="490" width="20" height="20" as="geometry" />
        </mxCell>
        <mxCell id="KX2G0ClOtOz7CE5KhIWY-8" value="" style="whiteSpace=wrap;html=1;aspect=fixed;rounded=0;strokeColor=default;fontFamily=Helvetica;fontSize=12;fontColor=default;fillColor=none;" parent="1" vertex="1">
          <mxGeometry x="1440" y="490" width="20" height="20" as="geometry" />
        </mxCell>
        <mxCell id="KX2G0ClOtOz7CE5KhIWY-9" value="" style="whiteSpace=wrap;html=1;aspect=fixed;rounded=0;strokeColor=default;fontFamily=Helvetica;fontSize=12;fontColor=default;fillColor=none;" parent="1" vertex="1">
          <mxGeometry x="1460" y="490" width="20" height="20" as="geometry" />
        </mxCell>
        <mxCell id="KX2G0ClOtOz7CE5KhIWY-10" value="" style="whiteSpace=wrap;html=1;aspect=fixed;rounded=0;strokeColor=default;fontFamily=Helvetica;fontSize=12;fontColor=default;fillColor=none;" parent="1" vertex="1">
          <mxGeometry x="1480" y="490" width="20" height="20" as="geometry" />
        </mxCell>
        <mxCell id="KX2G0ClOtOz7CE5KhIWY-11" value="" style="whiteSpace=wrap;html=1;aspect=fixed;rounded=0;strokeColor=default;fontFamily=Helvetica;fontSize=12;fontColor=default;fillColor=none;" parent="1" vertex="1">
          <mxGeometry x="1340" y="510" width="20" height="20" as="geometry" />
        </mxCell>
        <mxCell id="KX2G0ClOtOz7CE5KhIWY-12" value="" style="whiteSpace=wrap;html=1;aspect=fixed;rounded=0;strokeColor=default;fontFamily=Helvetica;fontSize=12;fontColor=default;fillColor=none;" parent="1" vertex="1">
          <mxGeometry x="1360" y="510" width="20" height="20" as="geometry" />
        </mxCell>
        <mxCell id="KX2G0ClOtOz7CE5KhIWY-13" value="" style="whiteSpace=wrap;html=1;aspect=fixed;rounded=0;strokeColor=default;fontFamily=Helvetica;fontSize=12;fontColor=default;fillColor=none;" parent="1" vertex="1">
          <mxGeometry x="1380" y="510" width="20" height="20" as="geometry" />
        </mxCell>
        <mxCell id="KX2G0ClOtOz7CE5KhIWY-14" value="" style="whiteSpace=wrap;html=1;aspect=fixed;rounded=0;strokeColor=default;fontFamily=Helvetica;fontSize=12;fontColor=default;fillColor=none;" parent="1" vertex="1">
          <mxGeometry x="1400" y="510" width="20" height="20" as="geometry" />
        </mxCell>
        <mxCell id="KX2G0ClOtOz7CE5KhIWY-15" value="" style="whiteSpace=wrap;html=1;aspect=fixed;rounded=0;strokeColor=default;fontFamily=Helvetica;fontSize=12;fontColor=default;fillColor=none;" parent="1" vertex="1">
          <mxGeometry x="1420" y="510" width="20" height="20" as="geometry" />
        </mxCell>
        <mxCell id="KX2G0ClOtOz7CE5KhIWY-16" value="" style="whiteSpace=wrap;html=1;aspect=fixed;rounded=0;strokeColor=default;fontFamily=Helvetica;fontSize=12;fontColor=default;fillColor=none;" parent="1" vertex="1">
          <mxGeometry x="1440" y="510" width="20" height="20" as="geometry" />
        </mxCell>
        <mxCell id="KX2G0ClOtOz7CE5KhIWY-17" value="" style="whiteSpace=wrap;html=1;aspect=fixed;rounded=0;strokeColor=default;fontFamily=Helvetica;fontSize=12;fontColor=default;fillColor=none;" parent="1" vertex="1">
          <mxGeometry x="1460" y="510" width="20" height="20" as="geometry" />
        </mxCell>
        <mxCell id="KX2G0ClOtOz7CE5KhIWY-18" value="" style="whiteSpace=wrap;html=1;aspect=fixed;rounded=0;strokeColor=default;fontFamily=Helvetica;fontSize=12;fontColor=default;fillColor=none;" parent="1" vertex="1">
          <mxGeometry x="1480" y="510" width="20" height="20" as="geometry" />
        </mxCell>
        <mxCell id="KX2G0ClOtOz7CE5KhIWY-19" value="" style="whiteSpace=wrap;html=1;aspect=fixed;rounded=0;strokeColor=default;fontFamily=Helvetica;fontSize=12;fontColor=default;fillColor=none;" parent="1" vertex="1">
          <mxGeometry x="1340" y="530" width="20" height="20" as="geometry" />
        </mxCell>
        <mxCell id="KX2G0ClOtOz7CE5KhIWY-20" value="" style="whiteSpace=wrap;html=1;aspect=fixed;rounded=0;strokeColor=default;fontFamily=Helvetica;fontSize=12;fontColor=default;fillColor=none;" parent="1" vertex="1">
          <mxGeometry x="1360" y="530" width="20" height="20" as="geometry" />
        </mxCell>
        <mxCell id="KX2G0ClOtOz7CE5KhIWY-21" value="" style="whiteSpace=wrap;html=1;aspect=fixed;rounded=0;strokeColor=default;fontFamily=Helvetica;fontSize=12;fontColor=default;fillColor=none;" parent="1" vertex="1">
          <mxGeometry x="1380" y="530" width="20" height="20" as="geometry" />
        </mxCell>
        <mxCell id="KX2G0ClOtOz7CE5KhIWY-22" value="" style="whiteSpace=wrap;html=1;aspect=fixed;rounded=0;strokeColor=default;fontFamily=Helvetica;fontSize=12;fontColor=default;fillColor=none;" parent="1" vertex="1">
          <mxGeometry x="1400" y="530" width="20" height="20" as="geometry" />
        </mxCell>
        <mxCell id="KX2G0ClOtOz7CE5KhIWY-23" value="" style="whiteSpace=wrap;html=1;aspect=fixed;rounded=0;strokeColor=default;fontFamily=Helvetica;fontSize=12;fontColor=default;fillColor=none;" parent="1" vertex="1">
          <mxGeometry x="1420" y="530" width="20" height="20" as="geometry" />
        </mxCell>
        <mxCell id="KX2G0ClOtOz7CE5KhIWY-24" value="" style="whiteSpace=wrap;html=1;aspect=fixed;rounded=0;strokeColor=default;fontFamily=Helvetica;fontSize=12;fontColor=default;fillColor=none;" parent="1" vertex="1">
          <mxGeometry x="1440" y="530" width="20" height="20" as="geometry" />
        </mxCell>
        <mxCell id="KX2G0ClOtOz7CE5KhIWY-25" value="" style="whiteSpace=wrap;html=1;aspect=fixed;rounded=0;strokeColor=default;fontFamily=Helvetica;fontSize=12;fontColor=default;fillColor=none;" parent="1" vertex="1">
          <mxGeometry x="1460" y="530" width="20" height="20" as="geometry" />
        </mxCell>
        <mxCell id="KX2G0ClOtOz7CE5KhIWY-26" value="" style="whiteSpace=wrap;html=1;aspect=fixed;rounded=0;strokeColor=default;fontFamily=Helvetica;fontSize=12;fontColor=default;fillColor=none;" parent="1" vertex="1">
          <mxGeometry x="1480" y="530" width="20" height="20" as="geometry" />
        </mxCell>
        <mxCell id="KX2G0ClOtOz7CE5KhIWY-27" value="" style="whiteSpace=wrap;html=1;aspect=fixed;rounded=0;strokeColor=default;fontFamily=Helvetica;fontSize=12;fontColor=default;fillColor=none;" parent="1" vertex="1">
          <mxGeometry x="1340" y="550" width="20" height="20" as="geometry" />
        </mxCell>
        <mxCell id="KX2G0ClOtOz7CE5KhIWY-28" value="" style="whiteSpace=wrap;html=1;aspect=fixed;rounded=0;strokeColor=default;fontFamily=Helvetica;fontSize=12;fontColor=default;fillColor=none;" parent="1" vertex="1">
          <mxGeometry x="1360" y="550" width="20" height="20" as="geometry" />
        </mxCell>
        <mxCell id="KX2G0ClOtOz7CE5KhIWY-29" value="" style="whiteSpace=wrap;html=1;aspect=fixed;rounded=0;strokeColor=default;fontFamily=Helvetica;fontSize=12;fontColor=default;fillColor=none;" parent="1" vertex="1">
          <mxGeometry x="1380" y="550" width="20" height="20" as="geometry" />
        </mxCell>
        <mxCell id="KX2G0ClOtOz7CE5KhIWY-30" value="" style="whiteSpace=wrap;html=1;aspect=fixed;rounded=0;strokeColor=default;fontFamily=Helvetica;fontSize=12;fontColor=default;fillColor=none;" parent="1" vertex="1">
          <mxGeometry x="1400" y="550" width="20" height="20" as="geometry" />
        </mxCell>
        <mxCell id="KX2G0ClOtOz7CE5KhIWY-31" value="" style="whiteSpace=wrap;html=1;aspect=fixed;rounded=0;strokeColor=default;fontFamily=Helvetica;fontSize=12;fontColor=default;fillColor=none;" parent="1" vertex="1">
          <mxGeometry x="1420" y="550" width="20" height="20" as="geometry" />
        </mxCell>
        <mxCell id="KX2G0ClOtOz7CE5KhIWY-32" value="" style="whiteSpace=wrap;html=1;aspect=fixed;rounded=0;strokeColor=default;fontFamily=Helvetica;fontSize=12;fontColor=default;fillColor=none;" parent="1" vertex="1">
          <mxGeometry x="1440" y="550" width="20" height="20" as="geometry" />
        </mxCell>
        <mxCell id="KX2G0ClOtOz7CE5KhIWY-33" value="" style="whiteSpace=wrap;html=1;aspect=fixed;rounded=0;strokeColor=default;fontFamily=Helvetica;fontSize=12;fontColor=default;fillColor=none;" parent="1" vertex="1">
          <mxGeometry x="1460" y="550" width="20" height="20" as="geometry" />
        </mxCell>
        <mxCell id="KX2G0ClOtOz7CE5KhIWY-34" value="" style="whiteSpace=wrap;html=1;aspect=fixed;rounded=0;strokeColor=default;fontFamily=Helvetica;fontSize=12;fontColor=default;fillColor=none;" parent="1" vertex="1">
          <mxGeometry x="1480" y="550" width="20" height="20" as="geometry" />
        </mxCell>
        <mxCell id="KX2G0ClOtOz7CE5KhIWY-35" value="" style="whiteSpace=wrap;html=1;aspect=fixed;rounded=0;strokeColor=default;fontFamily=Helvetica;fontSize=12;fontColor=default;fillColor=none;" parent="1" vertex="1">
          <mxGeometry x="1340" y="570" width="20" height="20" as="geometry" />
        </mxCell>
        <mxCell id="KX2G0ClOtOz7CE5KhIWY-36" value="" style="whiteSpace=wrap;html=1;aspect=fixed;rounded=0;strokeColor=default;fontFamily=Helvetica;fontSize=12;fontColor=default;fillColor=none;" parent="1" vertex="1">
          <mxGeometry x="1360" y="570" width="20" height="20" as="geometry" />
        </mxCell>
        <mxCell id="KX2G0ClOtOz7CE5KhIWY-37" value="" style="whiteSpace=wrap;html=1;aspect=fixed;rounded=0;strokeColor=default;fontFamily=Helvetica;fontSize=12;fontColor=default;fillColor=none;" parent="1" vertex="1">
          <mxGeometry x="1380" y="570" width="20" height="20" as="geometry" />
        </mxCell>
        <mxCell id="KX2G0ClOtOz7CE5KhIWY-38" value="" style="whiteSpace=wrap;html=1;aspect=fixed;rounded=0;strokeColor=default;fontFamily=Helvetica;fontSize=12;fontColor=default;fillColor=none;" parent="1" vertex="1">
          <mxGeometry x="1400" y="570" width="20" height="20" as="geometry" />
        </mxCell>
        <mxCell id="KX2G0ClOtOz7CE5KhIWY-39" value="" style="whiteSpace=wrap;html=1;aspect=fixed;rounded=0;strokeColor=default;fontFamily=Helvetica;fontSize=12;fontColor=default;fillColor=none;" parent="1" vertex="1">
          <mxGeometry x="1420" y="570" width="20" height="20" as="geometry" />
        </mxCell>
        <mxCell id="KX2G0ClOtOz7CE5KhIWY-40" value="" style="whiteSpace=wrap;html=1;aspect=fixed;rounded=0;strokeColor=default;fontFamily=Helvetica;fontSize=12;fontColor=default;fillColor=none;" parent="1" vertex="1">
          <mxGeometry x="1440" y="570" width="20" height="20" as="geometry" />
        </mxCell>
        <mxCell id="KX2G0ClOtOz7CE5KhIWY-41" value="" style="whiteSpace=wrap;html=1;aspect=fixed;rounded=0;strokeColor=default;fontFamily=Helvetica;fontSize=12;fontColor=default;fillColor=none;" parent="1" vertex="1">
          <mxGeometry x="1460" y="570" width="20" height="20" as="geometry" />
        </mxCell>
        <mxCell id="KX2G0ClOtOz7CE5KhIWY-42" value="" style="whiteSpace=wrap;html=1;aspect=fixed;rounded=0;strokeColor=default;fontFamily=Helvetica;fontSize=12;fontColor=default;fillColor=none;" parent="1" vertex="1">
          <mxGeometry x="1480" y="570" width="20" height="20" as="geometry" />
        </mxCell>
        <mxCell id="KX2G0ClOtOz7CE5KhIWY-43" value="" style="whiteSpace=wrap;html=1;aspect=fixed;rounded=0;strokeColor=default;fontFamily=Helvetica;fontSize=12;fontColor=default;fillColor=none;" parent="1" vertex="1">
          <mxGeometry x="1340" y="590" width="20" height="20" as="geometry" />
        </mxCell>
        <mxCell id="KX2G0ClOtOz7CE5KhIWY-44" value="" style="whiteSpace=wrap;html=1;aspect=fixed;rounded=0;strokeColor=default;fontFamily=Helvetica;fontSize=12;fontColor=default;fillColor=none;" parent="1" vertex="1">
          <mxGeometry x="1360" y="590" width="20" height="20" as="geometry" />
        </mxCell>
        <mxCell id="KX2G0ClOtOz7CE5KhIWY-45" value="" style="whiteSpace=wrap;html=1;aspect=fixed;rounded=0;strokeColor=default;fontFamily=Helvetica;fontSize=12;fontColor=default;fillColor=none;" parent="1" vertex="1">
          <mxGeometry x="1380" y="590" width="20" height="20" as="geometry" />
        </mxCell>
        <mxCell id="KX2G0ClOtOz7CE5KhIWY-46" value="" style="whiteSpace=wrap;html=1;aspect=fixed;rounded=0;strokeColor=default;fontFamily=Helvetica;fontSize=12;fontColor=default;fillColor=none;" parent="1" vertex="1">
          <mxGeometry x="1400" y="590" width="20" height="20" as="geometry" />
        </mxCell>
        <mxCell id="KX2G0ClOtOz7CE5KhIWY-47" value="" style="whiteSpace=wrap;html=1;aspect=fixed;rounded=0;strokeColor=default;fontFamily=Helvetica;fontSize=12;fontColor=default;fillColor=none;" parent="1" vertex="1">
          <mxGeometry x="1420" y="590" width="20" height="20" as="geometry" />
        </mxCell>
        <mxCell id="KX2G0ClOtOz7CE5KhIWY-48" value="" style="whiteSpace=wrap;html=1;aspect=fixed;rounded=0;strokeColor=default;fontFamily=Helvetica;fontSize=12;fontColor=default;fillColor=none;" parent="1" vertex="1">
          <mxGeometry x="1440" y="590" width="20" height="20" as="geometry" />
        </mxCell>
        <mxCell id="KX2G0ClOtOz7CE5KhIWY-49" value="" style="whiteSpace=wrap;html=1;aspect=fixed;rounded=0;strokeColor=default;fontFamily=Helvetica;fontSize=12;fontColor=default;fillColor=none;" parent="1" vertex="1">
          <mxGeometry x="1460" y="590" width="20" height="20" as="geometry" />
        </mxCell>
        <mxCell id="KX2G0ClOtOz7CE5KhIWY-50" value="" style="whiteSpace=wrap;html=1;aspect=fixed;rounded=0;strokeColor=default;fontFamily=Helvetica;fontSize=12;fontColor=default;fillColor=none;" parent="1" vertex="1">
          <mxGeometry x="1480" y="590" width="20" height="20" as="geometry" />
        </mxCell>
        <mxCell id="KX2G0ClOtOz7CE5KhIWY-51" value="" style="whiteSpace=wrap;html=1;aspect=fixed;rounded=0;strokeColor=default;fontFamily=Helvetica;fontSize=12;fontColor=default;fillColor=none;" parent="1" vertex="1">
          <mxGeometry x="1340" y="610" width="20" height="20" as="geometry" />
        </mxCell>
        <mxCell id="KX2G0ClOtOz7CE5KhIWY-52" value="" style="whiteSpace=wrap;html=1;aspect=fixed;rounded=0;strokeColor=default;fontFamily=Helvetica;fontSize=12;fontColor=default;fillColor=none;" parent="1" vertex="1">
          <mxGeometry x="1360" y="610" width="20" height="20" as="geometry" />
        </mxCell>
        <mxCell id="KX2G0ClOtOz7CE5KhIWY-53" value="" style="whiteSpace=wrap;html=1;aspect=fixed;rounded=0;strokeColor=default;fontFamily=Helvetica;fontSize=12;fontColor=default;fillColor=none;" parent="1" vertex="1">
          <mxGeometry x="1380" y="610" width="20" height="20" as="geometry" />
        </mxCell>
        <mxCell id="KX2G0ClOtOz7CE5KhIWY-54" value="" style="whiteSpace=wrap;html=1;aspect=fixed;rounded=0;strokeColor=default;fontFamily=Helvetica;fontSize=12;fontColor=default;fillColor=none;" parent="1" vertex="1">
          <mxGeometry x="1400" y="610" width="20" height="20" as="geometry" />
        </mxCell>
        <mxCell id="KX2G0ClOtOz7CE5KhIWY-55" value="" style="whiteSpace=wrap;html=1;aspect=fixed;rounded=0;strokeColor=default;fontFamily=Helvetica;fontSize=12;fontColor=default;fillColor=none;" parent="1" vertex="1">
          <mxGeometry x="1420" y="610" width="20" height="20" as="geometry" />
        </mxCell>
        <mxCell id="KX2G0ClOtOz7CE5KhIWY-56" value="" style="whiteSpace=wrap;html=1;aspect=fixed;rounded=0;strokeColor=default;fontFamily=Helvetica;fontSize=12;fontColor=default;fillColor=none;" parent="1" vertex="1">
          <mxGeometry x="1440" y="610" width="20" height="20" as="geometry" />
        </mxCell>
        <mxCell id="KX2G0ClOtOz7CE5KhIWY-57" value="" style="whiteSpace=wrap;html=1;aspect=fixed;rounded=0;strokeColor=default;fontFamily=Helvetica;fontSize=12;fontColor=default;fillColor=none;" parent="1" vertex="1">
          <mxGeometry x="1460" y="610" width="20" height="20" as="geometry" />
        </mxCell>
        <mxCell id="KX2G0ClOtOz7CE5KhIWY-58" value="" style="whiteSpace=wrap;html=1;aspect=fixed;rounded=0;strokeColor=default;fontFamily=Helvetica;fontSize=12;fontColor=default;fillColor=none;" parent="1" vertex="1">
          <mxGeometry x="1480" y="610" width="20" height="20" as="geometry" />
        </mxCell>
        <mxCell id="KX2G0ClOtOz7CE5KhIWY-59" value="" style="whiteSpace=wrap;html=1;aspect=fixed;rounded=0;strokeColor=default;fontFamily=Helvetica;fontSize=12;fontColor=default;fillColor=none;" parent="1" vertex="1">
          <mxGeometry x="1340" y="630" width="20" height="20" as="geometry" />
        </mxCell>
        <mxCell id="KX2G0ClOtOz7CE5KhIWY-60" value="" style="whiteSpace=wrap;html=1;aspect=fixed;rounded=0;strokeColor=default;fontFamily=Helvetica;fontSize=12;fontColor=default;fillColor=none;" parent="1" vertex="1">
          <mxGeometry x="1360" y="630" width="20" height="20" as="geometry" />
        </mxCell>
        <mxCell id="KX2G0ClOtOz7CE5KhIWY-61" value="" style="whiteSpace=wrap;html=1;aspect=fixed;rounded=0;strokeColor=default;fontFamily=Helvetica;fontSize=12;fontColor=default;fillColor=none;" parent="1" vertex="1">
          <mxGeometry x="1380" y="630" width="20" height="20" as="geometry" />
        </mxCell>
        <mxCell id="KX2G0ClOtOz7CE5KhIWY-62" value="" style="whiteSpace=wrap;html=1;aspect=fixed;rounded=0;strokeColor=default;fontFamily=Helvetica;fontSize=12;fontColor=default;fillColor=none;" parent="1" vertex="1">
          <mxGeometry x="1400" y="630" width="20" height="20" as="geometry" />
        </mxCell>
        <mxCell id="KX2G0ClOtOz7CE5KhIWY-63" value="" style="whiteSpace=wrap;html=1;aspect=fixed;rounded=0;strokeColor=default;fontFamily=Helvetica;fontSize=12;fontColor=default;fillColor=none;" parent="1" vertex="1">
          <mxGeometry x="1420" y="630" width="20" height="20" as="geometry" />
        </mxCell>
        <mxCell id="KX2G0ClOtOz7CE5KhIWY-64" value="" style="whiteSpace=wrap;html=1;aspect=fixed;rounded=0;strokeColor=default;fontFamily=Helvetica;fontSize=12;fontColor=default;fillColor=none;" parent="1" vertex="1">
          <mxGeometry x="1440" y="630" width="20" height="20" as="geometry" />
        </mxCell>
        <mxCell id="KX2G0ClOtOz7CE5KhIWY-65" value="" style="whiteSpace=wrap;html=1;aspect=fixed;rounded=0;strokeColor=default;fontFamily=Helvetica;fontSize=12;fontColor=default;fillColor=none;" parent="1" vertex="1">
          <mxGeometry x="1460" y="630" width="20" height="20" as="geometry" />
        </mxCell>
        <mxCell id="KX2G0ClOtOz7CE5KhIWY-66" value="" style="whiteSpace=wrap;html=1;aspect=fixed;rounded=0;strokeColor=default;fontFamily=Helvetica;fontSize=12;fontColor=default;fillColor=none;" parent="1" vertex="1">
          <mxGeometry x="1480" y="630" width="20" height="20" as="geometry" />
        </mxCell>
        <mxCell id="KX2G0ClOtOz7CE5KhIWY-74" value="" style="endArrow=classic;html=1;rounded=0;strokeWidth=4;" parent="1" edge="1">
          <mxGeometry width="50" height="50" relative="1" as="geometry">
            <mxPoint x="680" y="570" as="sourcePoint" />
            <mxPoint x="740" y="570" as="targetPoint" />
          </mxGeometry>
        </mxCell>
        <mxCell id="KX2G0ClOtOz7CE5KhIWY-75" value="" style="endArrow=classic;html=1;rounded=0;strokeWidth=4;" parent="1" edge="1">
          <mxGeometry width="50" height="50" relative="1" as="geometry">
            <mxPoint x="1060" y="569.57" as="sourcePoint" />
            <mxPoint x="1120" y="569.57" as="targetPoint" />
          </mxGeometry>
        </mxCell>
        <mxCell id="KX2G0ClOtOz7CE5KhIWY-146" value="&lt;p style=&quot;line-height: 120%;&quot;&gt;&lt;b&gt;&lt;font style=&quot;font-size: 24px;&quot; face=&quot;Times New Roman&quot;&gt;Choose move that maximizes \(U(s, a)\)&lt;/font&gt;&lt;/b&gt;&lt;/p&gt;" style="text;html=1;strokeColor=none;fillColor=none;align=center;verticalAlign=middle;whiteSpace=wrap;rounded=0;" parent="1" vertex="1">
          <mxGeometry x="710" y="850" width="400" height="40" as="geometry" />
        </mxCell>
        <mxCell id="KX2G0ClOtOz7CE5KhIWY-148" value="&lt;b&gt;&lt;font style=&quot;font-size: 8px;&quot; face=&quot;Times New Roman&quot;&gt;0.18&lt;/font&gt;&lt;/b&gt;" style="text;html=1;strokeColor=none;fillColor=none;align=center;verticalAlign=middle;whiteSpace=wrap;rounded=0;" parent="1" vertex="1">
          <mxGeometry x="1440" y="550" width="20" height="20" as="geometry" />
        </mxCell>
        <mxCell id="KX2G0ClOtOz7CE5KhIWY-149" value="&lt;b&gt;&lt;font style=&quot;font-size: 18px;&quot; face=&quot;Times New Roman&quot;&gt;Improved Policy \(\mathbf{P}\)&lt;/font&gt;&lt;/b&gt;" style="text;html=1;strokeColor=none;fillColor=none;align=center;verticalAlign=middle;whiteSpace=wrap;rounded=0;" parent="1" vertex="1">
          <mxGeometry x="1340" y="450" width="160" height="40" as="geometry" />
        </mxCell>
        <mxCell id="KX2G0ClOtOz7CE5KhIWY-153" value="" style="endArrow=classic;html=1;rounded=0;strokeWidth=4;" parent="1" edge="1">
          <mxGeometry width="50" height="50" relative="1" as="geometry">
            <mxPoint x="870" y="569.57" as="sourcePoint" />
            <mxPoint x="930" y="569.57" as="targetPoint" />
          </mxGeometry>
        </mxCell>
        <mxCell id="KX2G0ClOtOz7CE5KhIWY-154" value="&lt;b&gt;&lt;font style=&quot;font-size: 24px;&quot; face=&quot;Times New Roman&quot;&gt;MCTS&lt;/font&gt;&lt;/b&gt;" style="text;html=1;strokeColor=none;fillColor=none;align=center;verticalAlign=middle;whiteSpace=wrap;rounded=0;" parent="1" vertex="1">
          <mxGeometry x="770" y="550" width="70" height="40" as="geometry" />
        </mxCell>
        <mxCell id="KX2G0ClOtOz7CE5KhIWY-159" value="&lt;p style=&quot;line-height: 120%;&quot;&gt;&lt;b&gt;&lt;font style=&quot;font-size: 24px;&quot; face=&quot;Times New Roman&quot;&gt;25 iterations&lt;/font&gt;&lt;/b&gt;&lt;/p&gt;" style="text;html=1;strokeColor=none;fillColor=none;align=center;verticalAlign=middle;whiteSpace=wrap;rounded=0;" parent="1" vertex="1">
          <mxGeometry x="770" y="620" width="250" height="40" as="geometry" />
        </mxCell>
        <mxCell id="KX2G0ClOtOz7CE5KhIWY-160" value="&lt;b&gt;&lt;font face=&quot;Times New Roman&quot;&gt;&lt;font style=&quot;font-size: 18px;&quot;&gt;Reward \(r\)&lt;/font&gt;&lt;br&gt;&lt;/font&gt;&lt;/b&gt;" style="text;html=1;strokeColor=none;fillColor=none;align=center;verticalAlign=middle;whiteSpace=wrap;rounded=0;" parent="1" vertex="1">
          <mxGeometry x="1530" y="450" width="80" height="40" as="geometry" />
        </mxCell>
        <mxCell id="KX2G0ClOtOz7CE5KhIWY-162" value="&lt;b&gt;&lt;font style=&quot;font-size: 24px;&quot; face=&quot;Times New Roman&quot;&gt;1, 0, -1&lt;/font&gt;&lt;/b&gt;" style="text;html=1;strokeColor=none;fillColor=none;align=center;verticalAlign=middle;whiteSpace=wrap;rounded=0;" parent="1" vertex="1">
          <mxGeometry x="1530" y="550" width="80" height="40" as="geometry" />
        </mxCell>
        <mxCell id="KX2G0ClOtOz7CE5KhIWY-163" value="" style="shape=cylinder3;whiteSpace=wrap;html=1;boundedLbl=1;backgroundOutline=1;size=15;" parent="1" vertex="1">
          <mxGeometry x="1290" y="770" width="135" height="130" as="geometry" />
        </mxCell>
        <mxCell id="KX2G0ClOtOz7CE5KhIWY-173" value="" style="shape=flexArrow;endArrow=classic;html=1;rounded=0;" parent="1" edge="1">
          <mxGeometry width="50" height="50" relative="1" as="geometry">
            <mxPoint x="1360" y="690" as="sourcePoint" />
            <mxPoint x="1360" y="760" as="targetPoint" />
          </mxGeometry>
        </mxCell>
        <mxCell id="ciVCbVhhYI-BDBuRR6O5-3" value="&lt;p style=&quot;line-height: 120%;&quot;&gt;&lt;b&gt;&lt;font style=&quot;font-size: 24px;&quot; face=&quot;Times New Roman&quot;&gt;Training Examples&lt;/font&gt;&lt;/b&gt;&lt;/p&gt;" style="text;html=1;strokeColor=none;fillColor=none;align=center;verticalAlign=middle;whiteSpace=wrap;rounded=0;" parent="1" vertex="1">
          <mxGeometry x="1290" y="820" width="130" height="40" as="geometry" />
        </mxCell>
        <mxCell id="eeTQhhfc9qIcgufuA3rE-2" value="&lt;b&gt;&lt;font face=&quot;Times New Roman&quot;&gt;&lt;font style=&quot;font-size: 10px;&quot;&gt;(Filled in at the end of the game)&lt;/font&gt;&lt;br&gt;&lt;/font&gt;&lt;/b&gt;" style="text;html=1;strokeColor=none;fillColor=none;align=center;verticalAlign=middle;whiteSpace=wrap;rounded=0;" vertex="1" parent="1">
          <mxGeometry x="1530" y="490" width="80" height="40" as="geometry" />
        </mxCell>
        <mxCell id="eeTQhhfc9qIcgufuA3rE-3" value="&lt;b&gt;&lt;font style=&quot;font-size: 8px;&quot; face=&quot;Times New Roman&quot;&gt;0.21&lt;/font&gt;&lt;/b&gt;" style="text;html=1;strokeColor=none;fillColor=none;align=center;verticalAlign=middle;whiteSpace=wrap;rounded=0;" vertex="1" parent="1">
          <mxGeometry x="1420" y="530" width="20" height="20" as="geometry" />
        </mxCell>
        <mxCell id="eeTQhhfc9qIcgufuA3rE-7" value="&lt;b&gt;&lt;font style=&quot;font-size: 8px;&quot; face=&quot;Times New Roman&quot;&gt;0.34&lt;br&gt;&lt;/font&gt;&lt;/b&gt;" style="text;html=1;strokeColor=none;fillColor=none;align=center;verticalAlign=middle;whiteSpace=wrap;rounded=0;" vertex="1" parent="1">
          <mxGeometry x="1400" y="590" width="20" height="20" as="geometry" />
        </mxCell>
        <mxCell id="eeTQhhfc9qIcgufuA3rE-8" value="&lt;b&gt;&lt;font style=&quot;font-size: 8px;&quot; face=&quot;Times New Roman&quot;&gt;0.27&lt;/font&gt;&lt;/b&gt;" style="text;html=1;strokeColor=none;fillColor=none;align=center;verticalAlign=middle;whiteSpace=wrap;rounded=0;" vertex="1" parent="1">
          <mxGeometry x="1380" y="570" width="20" height="20" as="geometry" />
        </mxCell>
        <mxCell id="eeTQhhfc9qIcgufuA3rE-13" value="" style="shape=flexArrow;endArrow=classic;html=1;rounded=0;" edge="1" parent="1">
          <mxGeometry width="50" height="50" relative="1" as="geometry">
            <mxPoint x="1360" y="910" as="sourcePoint" />
            <mxPoint x="1360" y="960" as="targetPoint" />
          </mxGeometry>
        </mxCell>
        <mxCell id="eeTQhhfc9qIcgufuA3rE-14" value="&lt;b&gt;&lt;font style=&quot;font-size: 24px;&quot; face=&quot;Times New Roman&quot;&gt;Save to file&lt;br&gt;&lt;/font&gt;&lt;/b&gt;" style="text;html=1;strokeColor=none;fillColor=none;align=center;verticalAlign=middle;whiteSpace=wrap;rounded=0;" vertex="1" parent="1">
          <mxGeometry x="1280" y="960" width="160" height="40" as="geometry" />
        </mxCell>
        <mxCell id="eeTQhhfc9qIcgufuA3rE-15" value="" style="ellipse;whiteSpace=wrap;html=1;aspect=fixed;rounded=0;strokeColor=default;fontFamily=Helvetica;fontSize=12;fontColor=default;fillColor=none;" vertex="1" parent="1">
          <mxGeometry x="110" y="650" width="15" height="15" as="geometry" />
        </mxCell>
        <mxCell id="eeTQhhfc9qIcgufuA3rE-16" value="" style="ellipse;whiteSpace=wrap;html=1;aspect=fixed;rounded=0;strokeColor=default;fontFamily=Helvetica;fontSize=12;fontColor=default;fillColor=none;" vertex="1" parent="1">
          <mxGeometry x="1020" y="170" width="15" height="15" as="geometry" />
        </mxCell>
        <mxCell id="eeTQhhfc9qIcgufuA3rE-17" value="" style="ellipse;whiteSpace=wrap;html=1;aspect=fixed;rounded=0;strokeColor=default;fontFamily=Helvetica;fontSize=12;fontColor=default;fillColor=none;" vertex="1" parent="1">
          <mxGeometry x="1030" y="1200" width="15" height="15" as="geometry" />
        </mxCell>
        <mxCell id="eeTQhhfc9qIcgufuA3rE-18" value="" style="ellipse;whiteSpace=wrap;html=1;aspect=fixed;rounded=0;strokeColor=default;fontFamily=Helvetica;fontSize=12;fontColor=default;fillColor=none;" vertex="1" parent="1">
          <mxGeometry x="1940" y="660" width="15" height="15" as="geometry" />
        </mxCell>
        <mxCell id="eeTQhhfc9qIcgufuA3rE-19" value="" style="whiteSpace=wrap;html=1;aspect=fixed;rounded=0;strokeColor=default;fontFamily=Helvetica;fontSize=12;fontColor=default;fillColor=none;" vertex="1" parent="1">
          <mxGeometry x="1150" y="490" width="20" height="20" as="geometry" />
        </mxCell>
        <mxCell id="eeTQhhfc9qIcgufuA3rE-20" value="" style="whiteSpace=wrap;html=1;aspect=fixed;rounded=0;strokeColor=default;fontFamily=Helvetica;fontSize=12;fontColor=default;fillColor=none;" vertex="1" parent="1">
          <mxGeometry x="1170" y="490" width="20" height="20" as="geometry" />
        </mxCell>
        <mxCell id="eeTQhhfc9qIcgufuA3rE-21" value="" style="whiteSpace=wrap;html=1;aspect=fixed;rounded=0;strokeColor=default;fontFamily=Helvetica;fontSize=12;fontColor=default;fillColor=none;" vertex="1" parent="1">
          <mxGeometry x="1190" y="490" width="20" height="20" as="geometry" />
        </mxCell>
        <mxCell id="eeTQhhfc9qIcgufuA3rE-22" value="" style="whiteSpace=wrap;html=1;aspect=fixed;rounded=0;strokeColor=default;fontFamily=Helvetica;fontSize=12;fontColor=default;fillColor=none;" vertex="1" parent="1">
          <mxGeometry x="1210" y="490" width="20" height="20" as="geometry" />
        </mxCell>
        <mxCell id="eeTQhhfc9qIcgufuA3rE-23" value="" style="whiteSpace=wrap;html=1;aspect=fixed;rounded=0;strokeColor=default;fontFamily=Helvetica;fontSize=12;fontColor=default;fillColor=none;" vertex="1" parent="1">
          <mxGeometry x="1230" y="490" width="20" height="20" as="geometry" />
        </mxCell>
        <mxCell id="eeTQhhfc9qIcgufuA3rE-24" value="" style="whiteSpace=wrap;html=1;aspect=fixed;rounded=0;strokeColor=default;fontFamily=Helvetica;fontSize=12;fontColor=default;fillColor=none;" vertex="1" parent="1">
          <mxGeometry x="1250" y="490" width="20" height="20" as="geometry" />
        </mxCell>
        <mxCell id="eeTQhhfc9qIcgufuA3rE-25" value="" style="whiteSpace=wrap;html=1;aspect=fixed;rounded=0;strokeColor=default;fontFamily=Helvetica;fontSize=12;fontColor=default;fillColor=none;" vertex="1" parent="1">
          <mxGeometry x="1270" y="490" width="20" height="20" as="geometry" />
        </mxCell>
        <mxCell id="eeTQhhfc9qIcgufuA3rE-26" value="" style="whiteSpace=wrap;html=1;aspect=fixed;rounded=0;strokeColor=default;fontFamily=Helvetica;fontSize=12;fontColor=default;fillColor=none;" vertex="1" parent="1">
          <mxGeometry x="1290" y="490" width="20" height="20" as="geometry" />
        </mxCell>
        <mxCell id="eeTQhhfc9qIcgufuA3rE-27" value="" style="whiteSpace=wrap;html=1;aspect=fixed;rounded=0;strokeColor=default;fontFamily=Helvetica;fontSize=12;fontColor=default;fillColor=none;" vertex="1" parent="1">
          <mxGeometry x="1150" y="510" width="20" height="20" as="geometry" />
        </mxCell>
        <mxCell id="eeTQhhfc9qIcgufuA3rE-28" value="" style="whiteSpace=wrap;html=1;aspect=fixed;rounded=0;strokeColor=default;fontFamily=Helvetica;fontSize=12;fontColor=default;fillColor=none;" vertex="1" parent="1">
          <mxGeometry x="1170" y="510" width="20" height="20" as="geometry" />
        </mxCell>
        <mxCell id="eeTQhhfc9qIcgufuA3rE-29" value="" style="whiteSpace=wrap;html=1;aspect=fixed;rounded=0;strokeColor=default;fontFamily=Helvetica;fontSize=12;fontColor=default;fillColor=none;" vertex="1" parent="1">
          <mxGeometry x="1190" y="510" width="20" height="20" as="geometry" />
        </mxCell>
        <mxCell id="eeTQhhfc9qIcgufuA3rE-30" value="" style="whiteSpace=wrap;html=1;aspect=fixed;rounded=0;strokeColor=default;fontFamily=Helvetica;fontSize=12;fontColor=default;fillColor=none;" vertex="1" parent="1">
          <mxGeometry x="1210" y="510" width="20" height="20" as="geometry" />
        </mxCell>
        <mxCell id="eeTQhhfc9qIcgufuA3rE-31" value="" style="whiteSpace=wrap;html=1;aspect=fixed;rounded=0;strokeColor=default;fontFamily=Helvetica;fontSize=12;fontColor=default;fillColor=none;" vertex="1" parent="1">
          <mxGeometry x="1230" y="510" width="20" height="20" as="geometry" />
        </mxCell>
        <mxCell id="eeTQhhfc9qIcgufuA3rE-32" value="" style="whiteSpace=wrap;html=1;aspect=fixed;rounded=0;strokeColor=default;fontFamily=Helvetica;fontSize=12;fontColor=default;fillColor=none;" vertex="1" parent="1">
          <mxGeometry x="1250" y="510" width="20" height="20" as="geometry" />
        </mxCell>
        <mxCell id="eeTQhhfc9qIcgufuA3rE-33" value="" style="whiteSpace=wrap;html=1;aspect=fixed;rounded=0;strokeColor=default;fontFamily=Helvetica;fontSize=12;fontColor=default;fillColor=none;" vertex="1" parent="1">
          <mxGeometry x="1270" y="510" width="20" height="20" as="geometry" />
        </mxCell>
        <mxCell id="eeTQhhfc9qIcgufuA3rE-34" value="" style="whiteSpace=wrap;html=1;aspect=fixed;rounded=0;strokeColor=default;fontFamily=Helvetica;fontSize=12;fontColor=default;fillColor=none;" vertex="1" parent="1">
          <mxGeometry x="1290" y="510" width="20" height="20" as="geometry" />
        </mxCell>
        <mxCell id="eeTQhhfc9qIcgufuA3rE-35" value="" style="whiteSpace=wrap;html=1;aspect=fixed;rounded=0;strokeColor=default;fontFamily=Helvetica;fontSize=12;fontColor=default;fillColor=none;" vertex="1" parent="1">
          <mxGeometry x="1150" y="530" width="20" height="20" as="geometry" />
        </mxCell>
        <mxCell id="eeTQhhfc9qIcgufuA3rE-36" value="" style="whiteSpace=wrap;html=1;aspect=fixed;rounded=0;strokeColor=default;fontFamily=Helvetica;fontSize=12;fontColor=default;fillColor=none;" vertex="1" parent="1">
          <mxGeometry x="1170" y="530" width="20" height="20" as="geometry" />
        </mxCell>
        <mxCell id="eeTQhhfc9qIcgufuA3rE-37" value="" style="whiteSpace=wrap;html=1;aspect=fixed;rounded=0;strokeColor=default;fontFamily=Helvetica;fontSize=12;fontColor=default;fillColor=none;" vertex="1" parent="1">
          <mxGeometry x="1190" y="530" width="20" height="20" as="geometry" />
        </mxCell>
        <mxCell id="eeTQhhfc9qIcgufuA3rE-38" value="" style="whiteSpace=wrap;html=1;aspect=fixed;rounded=0;strokeColor=default;fontFamily=Helvetica;fontSize=12;fontColor=default;fillColor=none;" vertex="1" parent="1">
          <mxGeometry x="1210" y="530" width="20" height="20" as="geometry" />
        </mxCell>
        <mxCell id="eeTQhhfc9qIcgufuA3rE-39" value="" style="whiteSpace=wrap;html=1;aspect=fixed;rounded=0;strokeColor=default;fontFamily=Helvetica;fontSize=12;fontColor=default;fillColor=none;" vertex="1" parent="1">
          <mxGeometry x="1230" y="530" width="20" height="20" as="geometry" />
        </mxCell>
        <mxCell id="eeTQhhfc9qIcgufuA3rE-40" value="" style="whiteSpace=wrap;html=1;aspect=fixed;rounded=0;strokeColor=default;fontFamily=Helvetica;fontSize=12;fontColor=default;fillColor=none;" vertex="1" parent="1">
          <mxGeometry x="1250" y="530" width="20" height="20" as="geometry" />
        </mxCell>
        <mxCell id="eeTQhhfc9qIcgufuA3rE-41" value="" style="whiteSpace=wrap;html=1;aspect=fixed;rounded=0;strokeColor=default;fontFamily=Helvetica;fontSize=12;fontColor=default;fillColor=none;" vertex="1" parent="1">
          <mxGeometry x="1270" y="530" width="20" height="20" as="geometry" />
        </mxCell>
        <mxCell id="eeTQhhfc9qIcgufuA3rE-42" value="" style="whiteSpace=wrap;html=1;aspect=fixed;rounded=0;strokeColor=default;fontFamily=Helvetica;fontSize=12;fontColor=default;fillColor=none;" vertex="1" parent="1">
          <mxGeometry x="1290" y="530" width="20" height="20" as="geometry" />
        </mxCell>
        <mxCell id="eeTQhhfc9qIcgufuA3rE-43" value="" style="whiteSpace=wrap;html=1;aspect=fixed;rounded=0;strokeColor=default;fontFamily=Helvetica;fontSize=12;fontColor=default;fillColor=none;" vertex="1" parent="1">
          <mxGeometry x="1150" y="550" width="20" height="20" as="geometry" />
        </mxCell>
        <mxCell id="eeTQhhfc9qIcgufuA3rE-44" value="" style="whiteSpace=wrap;html=1;aspect=fixed;rounded=0;strokeColor=default;fontFamily=Helvetica;fontSize=12;fontColor=default;fillColor=none;" vertex="1" parent="1">
          <mxGeometry x="1170" y="550" width="20" height="20" as="geometry" />
        </mxCell>
        <mxCell id="eeTQhhfc9qIcgufuA3rE-45" value="" style="whiteSpace=wrap;html=1;aspect=fixed;rounded=0;strokeColor=default;fontFamily=Helvetica;fontSize=12;fontColor=default;fillColor=none;" vertex="1" parent="1">
          <mxGeometry x="1190" y="550" width="20" height="20" as="geometry" />
        </mxCell>
        <mxCell id="eeTQhhfc9qIcgufuA3rE-46" value="" style="whiteSpace=wrap;html=1;aspect=fixed;rounded=0;strokeColor=default;fontFamily=Helvetica;fontSize=12;fontColor=default;fillColor=none;" vertex="1" parent="1">
          <mxGeometry x="1210" y="550" width="20" height="20" as="geometry" />
        </mxCell>
        <mxCell id="eeTQhhfc9qIcgufuA3rE-47" value="" style="whiteSpace=wrap;html=1;aspect=fixed;rounded=0;strokeColor=default;fontFamily=Helvetica;fontSize=12;fontColor=default;fillColor=none;" vertex="1" parent="1">
          <mxGeometry x="1230" y="550" width="20" height="20" as="geometry" />
        </mxCell>
        <mxCell id="eeTQhhfc9qIcgufuA3rE-48" value="" style="whiteSpace=wrap;html=1;aspect=fixed;rounded=0;strokeColor=default;fontFamily=Helvetica;fontSize=12;fontColor=default;fillColor=none;" vertex="1" parent="1">
          <mxGeometry x="1250" y="550" width="20" height="20" as="geometry" />
        </mxCell>
        <mxCell id="eeTQhhfc9qIcgufuA3rE-49" value="" style="whiteSpace=wrap;html=1;aspect=fixed;rounded=0;strokeColor=default;fontFamily=Helvetica;fontSize=12;fontColor=default;fillColor=none;" vertex="1" parent="1">
          <mxGeometry x="1270" y="550" width="20" height="20" as="geometry" />
        </mxCell>
        <mxCell id="eeTQhhfc9qIcgufuA3rE-50" value="" style="whiteSpace=wrap;html=1;aspect=fixed;rounded=0;strokeColor=default;fontFamily=Helvetica;fontSize=12;fontColor=default;fillColor=none;" vertex="1" parent="1">
          <mxGeometry x="1290" y="550" width="20" height="20" as="geometry" />
        </mxCell>
        <mxCell id="eeTQhhfc9qIcgufuA3rE-51" value="" style="whiteSpace=wrap;html=1;aspect=fixed;rounded=0;strokeColor=default;fontFamily=Helvetica;fontSize=12;fontColor=default;fillColor=none;" vertex="1" parent="1">
          <mxGeometry x="1150" y="570" width="20" height="20" as="geometry" />
        </mxCell>
        <mxCell id="eeTQhhfc9qIcgufuA3rE-52" value="" style="whiteSpace=wrap;html=1;aspect=fixed;rounded=0;strokeColor=default;fontFamily=Helvetica;fontSize=12;fontColor=default;fillColor=none;" vertex="1" parent="1">
          <mxGeometry x="1170" y="570" width="20" height="20" as="geometry" />
        </mxCell>
        <mxCell id="eeTQhhfc9qIcgufuA3rE-53" value="" style="whiteSpace=wrap;html=1;aspect=fixed;rounded=0;strokeColor=default;fontFamily=Helvetica;fontSize=12;fontColor=default;fillColor=none;" vertex="1" parent="1">
          <mxGeometry x="1190" y="570" width="20" height="20" as="geometry" />
        </mxCell>
        <mxCell id="eeTQhhfc9qIcgufuA3rE-54" value="" style="whiteSpace=wrap;html=1;aspect=fixed;rounded=0;strokeColor=default;fontFamily=Helvetica;fontSize=12;fontColor=default;fillColor=none;" vertex="1" parent="1">
          <mxGeometry x="1210" y="570" width="20" height="20" as="geometry" />
        </mxCell>
        <mxCell id="eeTQhhfc9qIcgufuA3rE-55" value="" style="whiteSpace=wrap;html=1;aspect=fixed;rounded=0;strokeColor=default;fontFamily=Helvetica;fontSize=12;fontColor=default;fillColor=none;" vertex="1" parent="1">
          <mxGeometry x="1230" y="570" width="20" height="20" as="geometry" />
        </mxCell>
        <mxCell id="eeTQhhfc9qIcgufuA3rE-56" value="" style="whiteSpace=wrap;html=1;aspect=fixed;rounded=0;strokeColor=default;fontFamily=Helvetica;fontSize=12;fontColor=default;fillColor=none;" vertex="1" parent="1">
          <mxGeometry x="1250" y="570" width="20" height="20" as="geometry" />
        </mxCell>
        <mxCell id="eeTQhhfc9qIcgufuA3rE-57" value="" style="whiteSpace=wrap;html=1;aspect=fixed;rounded=0;strokeColor=default;fontFamily=Helvetica;fontSize=12;fontColor=default;fillColor=none;" vertex="1" parent="1">
          <mxGeometry x="1270" y="570" width="20" height="20" as="geometry" />
        </mxCell>
        <mxCell id="eeTQhhfc9qIcgufuA3rE-58" value="" style="whiteSpace=wrap;html=1;aspect=fixed;rounded=0;strokeColor=default;fontFamily=Helvetica;fontSize=12;fontColor=default;fillColor=none;" vertex="1" parent="1">
          <mxGeometry x="1290" y="570" width="20" height="20" as="geometry" />
        </mxCell>
        <mxCell id="eeTQhhfc9qIcgufuA3rE-59" value="" style="whiteSpace=wrap;html=1;aspect=fixed;rounded=0;strokeColor=default;fontFamily=Helvetica;fontSize=12;fontColor=default;fillColor=none;" vertex="1" parent="1">
          <mxGeometry x="1150" y="590" width="20" height="20" as="geometry" />
        </mxCell>
        <mxCell id="eeTQhhfc9qIcgufuA3rE-60" value="" style="whiteSpace=wrap;html=1;aspect=fixed;rounded=0;strokeColor=default;fontFamily=Helvetica;fontSize=12;fontColor=default;fillColor=none;" vertex="1" parent="1">
          <mxGeometry x="1170" y="590" width="20" height="20" as="geometry" />
        </mxCell>
        <mxCell id="eeTQhhfc9qIcgufuA3rE-61" value="" style="whiteSpace=wrap;html=1;aspect=fixed;rounded=0;strokeColor=default;fontFamily=Helvetica;fontSize=12;fontColor=default;fillColor=none;" vertex="1" parent="1">
          <mxGeometry x="1190" y="590" width="20" height="20" as="geometry" />
        </mxCell>
        <mxCell id="eeTQhhfc9qIcgufuA3rE-62" value="" style="whiteSpace=wrap;html=1;aspect=fixed;rounded=0;strokeColor=default;fontFamily=Helvetica;fontSize=12;fontColor=default;fillColor=none;" vertex="1" parent="1">
          <mxGeometry x="1210" y="590" width="20" height="20" as="geometry" />
        </mxCell>
        <mxCell id="eeTQhhfc9qIcgufuA3rE-63" value="" style="whiteSpace=wrap;html=1;aspect=fixed;rounded=0;strokeColor=default;fontFamily=Helvetica;fontSize=12;fontColor=default;fillColor=none;" vertex="1" parent="1">
          <mxGeometry x="1230" y="590" width="20" height="20" as="geometry" />
        </mxCell>
        <mxCell id="eeTQhhfc9qIcgufuA3rE-64" value="" style="whiteSpace=wrap;html=1;aspect=fixed;rounded=0;strokeColor=default;fontFamily=Helvetica;fontSize=12;fontColor=default;fillColor=none;" vertex="1" parent="1">
          <mxGeometry x="1250" y="590" width="20" height="20" as="geometry" />
        </mxCell>
        <mxCell id="eeTQhhfc9qIcgufuA3rE-65" value="" style="whiteSpace=wrap;html=1;aspect=fixed;rounded=0;strokeColor=default;fontFamily=Helvetica;fontSize=12;fontColor=default;fillColor=none;" vertex="1" parent="1">
          <mxGeometry x="1270" y="590" width="20" height="20" as="geometry" />
        </mxCell>
        <mxCell id="eeTQhhfc9qIcgufuA3rE-66" value="" style="whiteSpace=wrap;html=1;aspect=fixed;rounded=0;strokeColor=default;fontFamily=Helvetica;fontSize=12;fontColor=default;fillColor=none;" vertex="1" parent="1">
          <mxGeometry x="1290" y="590" width="20" height="20" as="geometry" />
        </mxCell>
        <mxCell id="eeTQhhfc9qIcgufuA3rE-67" value="" style="whiteSpace=wrap;html=1;aspect=fixed;rounded=0;strokeColor=default;fontFamily=Helvetica;fontSize=12;fontColor=default;fillColor=none;" vertex="1" parent="1">
          <mxGeometry x="1150" y="610" width="20" height="20" as="geometry" />
        </mxCell>
        <mxCell id="eeTQhhfc9qIcgufuA3rE-68" value="" style="whiteSpace=wrap;html=1;aspect=fixed;rounded=0;strokeColor=default;fontFamily=Helvetica;fontSize=12;fontColor=default;fillColor=none;" vertex="1" parent="1">
          <mxGeometry x="1170" y="610" width="20" height="20" as="geometry" />
        </mxCell>
        <mxCell id="eeTQhhfc9qIcgufuA3rE-69" value="" style="whiteSpace=wrap;html=1;aspect=fixed;rounded=0;strokeColor=default;fontFamily=Helvetica;fontSize=12;fontColor=default;fillColor=none;" vertex="1" parent="1">
          <mxGeometry x="1190" y="610" width="20" height="20" as="geometry" />
        </mxCell>
        <mxCell id="eeTQhhfc9qIcgufuA3rE-70" value="" style="whiteSpace=wrap;html=1;aspect=fixed;rounded=0;strokeColor=default;fontFamily=Helvetica;fontSize=12;fontColor=default;fillColor=none;" vertex="1" parent="1">
          <mxGeometry x="1210" y="610" width="20" height="20" as="geometry" />
        </mxCell>
        <mxCell id="eeTQhhfc9qIcgufuA3rE-71" value="" style="whiteSpace=wrap;html=1;aspect=fixed;rounded=0;strokeColor=default;fontFamily=Helvetica;fontSize=12;fontColor=default;fillColor=none;" vertex="1" parent="1">
          <mxGeometry x="1230" y="610" width="20" height="20" as="geometry" />
        </mxCell>
        <mxCell id="eeTQhhfc9qIcgufuA3rE-72" value="" style="whiteSpace=wrap;html=1;aspect=fixed;rounded=0;strokeColor=default;fontFamily=Helvetica;fontSize=12;fontColor=default;fillColor=none;" vertex="1" parent="1">
          <mxGeometry x="1250" y="610" width="20" height="20" as="geometry" />
        </mxCell>
        <mxCell id="eeTQhhfc9qIcgufuA3rE-73" value="" style="whiteSpace=wrap;html=1;aspect=fixed;rounded=0;strokeColor=default;fontFamily=Helvetica;fontSize=12;fontColor=default;fillColor=none;" vertex="1" parent="1">
          <mxGeometry x="1270" y="610" width="20" height="20" as="geometry" />
        </mxCell>
        <mxCell id="eeTQhhfc9qIcgufuA3rE-74" value="" style="whiteSpace=wrap;html=1;aspect=fixed;rounded=0;strokeColor=default;fontFamily=Helvetica;fontSize=12;fontColor=default;fillColor=none;" vertex="1" parent="1">
          <mxGeometry x="1290" y="610" width="20" height="20" as="geometry" />
        </mxCell>
        <mxCell id="eeTQhhfc9qIcgufuA3rE-75" value="" style="whiteSpace=wrap;html=1;aspect=fixed;rounded=0;strokeColor=default;fontFamily=Helvetica;fontSize=12;fontColor=default;fillColor=none;" vertex="1" parent="1">
          <mxGeometry x="1150" y="630" width="20" height="20" as="geometry" />
        </mxCell>
        <mxCell id="eeTQhhfc9qIcgufuA3rE-76" value="" style="whiteSpace=wrap;html=1;aspect=fixed;rounded=0;strokeColor=default;fontFamily=Helvetica;fontSize=12;fontColor=default;fillColor=none;" vertex="1" parent="1">
          <mxGeometry x="1170" y="630" width="20" height="20" as="geometry" />
        </mxCell>
        <mxCell id="eeTQhhfc9qIcgufuA3rE-77" value="" style="whiteSpace=wrap;html=1;aspect=fixed;rounded=0;strokeColor=default;fontFamily=Helvetica;fontSize=12;fontColor=default;fillColor=none;" vertex="1" parent="1">
          <mxGeometry x="1190" y="630" width="20" height="20" as="geometry" />
        </mxCell>
        <mxCell id="eeTQhhfc9qIcgufuA3rE-78" value="" style="whiteSpace=wrap;html=1;aspect=fixed;rounded=0;strokeColor=default;fontFamily=Helvetica;fontSize=12;fontColor=default;fillColor=none;" vertex="1" parent="1">
          <mxGeometry x="1210" y="630" width="20" height="20" as="geometry" />
        </mxCell>
        <mxCell id="eeTQhhfc9qIcgufuA3rE-79" value="" style="whiteSpace=wrap;html=1;aspect=fixed;rounded=0;strokeColor=default;fontFamily=Helvetica;fontSize=12;fontColor=default;fillColor=none;" vertex="1" parent="1">
          <mxGeometry x="1230" y="630" width="20" height="20" as="geometry" />
        </mxCell>
        <mxCell id="eeTQhhfc9qIcgufuA3rE-80" value="" style="whiteSpace=wrap;html=1;aspect=fixed;rounded=0;strokeColor=default;fontFamily=Helvetica;fontSize=12;fontColor=default;fillColor=none;" vertex="1" parent="1">
          <mxGeometry x="1250" y="630" width="20" height="20" as="geometry" />
        </mxCell>
        <mxCell id="eeTQhhfc9qIcgufuA3rE-81" value="" style="whiteSpace=wrap;html=1;aspect=fixed;rounded=0;strokeColor=default;fontFamily=Helvetica;fontSize=12;fontColor=default;fillColor=none;" vertex="1" parent="1">
          <mxGeometry x="1270" y="630" width="20" height="20" as="geometry" />
        </mxCell>
        <mxCell id="eeTQhhfc9qIcgufuA3rE-82" value="" style="whiteSpace=wrap;html=1;aspect=fixed;rounded=0;strokeColor=default;fontFamily=Helvetica;fontSize=12;fontColor=default;fillColor=none;" vertex="1" parent="1">
          <mxGeometry x="1290" y="630" width="20" height="20" as="geometry" />
        </mxCell>
        <mxCell id="eeTQhhfc9qIcgufuA3rE-83" value="" style="ellipse;whiteSpace=wrap;html=1;aspect=fixed;rounded=0;strokeColor=default;fontFamily=Helvetica;fontSize=12;fontColor=default;fillColor=#000000;" vertex="1" parent="1">
          <mxGeometry x="1212.5" y="552" width="15" height="15" as="geometry" />
        </mxCell>
        <mxCell id="eeTQhhfc9qIcgufuA3rE-84" value="" style="ellipse;whiteSpace=wrap;html=1;aspect=fixed;rounded=0;strokeColor=default;fontFamily=Helvetica;fontSize=12;fontColor=default;fillColor=#000000;" vertex="1" parent="1">
          <mxGeometry x="1232.5" y="572.5" width="15" height="15" as="geometry" />
        </mxCell>
        <mxCell id="eeTQhhfc9qIcgufuA3rE-85" value="" style="ellipse;whiteSpace=wrap;html=1;aspect=fixed;rounded=0;strokeColor=default;fontFamily=Helvetica;fontSize=12;fontColor=default;fillColor=none;" vertex="1" parent="1">
          <mxGeometry x="1212.5" y="572.5" width="15" height="15" as="geometry" />
        </mxCell>
        <mxCell id="eeTQhhfc9qIcgufuA3rE-86" value="" style="ellipse;whiteSpace=wrap;html=1;aspect=fixed;rounded=0;strokeColor=default;fontFamily=Helvetica;fontSize=12;fontColor=default;fillColor=none;" vertex="1" parent="1">
          <mxGeometry x="1232.5" y="552.5" width="15" height="15" as="geometry" />
        </mxCell>
        <mxCell id="eeTQhhfc9qIcgufuA3rE-87" value="&lt;b&gt;&lt;font style=&quot;font-size: 18px;&quot; face=&quot;Times New Roman&quot;&gt;Game State \(\mathbf{S}\)&lt;/font&gt;&lt;/b&gt;" style="text;html=1;strokeColor=none;fillColor=none;align=center;verticalAlign=middle;whiteSpace=wrap;rounded=0;" vertex="1" parent="1">
          <mxGeometry x="1150" y="450" width="160" height="40" as="geometry" />
        </mxCell>
        <mxCell id="eeTQhhfc9qIcgufuA3rE-161" style="edgeStyle=orthogonalEdgeStyle;orthogonalLoop=1;jettySize=auto;html=1;exitX=0.25;exitY=1;exitDx=0;exitDy=0;curved=1;strokeWidth=2;" edge="1" parent="1" source="eeTQhhfc9qIcgufuA3rE-89">
          <mxGeometry relative="1" as="geometry">
            <mxPoint x="1000" y="760" as="targetPoint" />
            <Array as="points">
              <mxPoint x="1260" y="760" />
            </Array>
          </mxGeometry>
        </mxCell>
        <mxCell id="eeTQhhfc9qIcgufuA3rE-89" value="" style="rounded=0;whiteSpace=wrap;html=1;fillColor=none;strokeWidth=2;" vertex="1" parent="1">
          <mxGeometry x="1140" y="450" width="480" height="220" as="geometry" />
        </mxCell>
        <mxCell id="eeTQhhfc9qIcgufuA3rE-90" value="" style="whiteSpace=wrap;html=1;aspect=fixed;rounded=0;strokeColor=default;fontFamily=Helvetica;fontSize=12;fontColor=default;fillColor=none;" vertex="1" parent="1">
          <mxGeometry x="820" y="680" width="20" height="20" as="geometry" />
        </mxCell>
        <mxCell id="eeTQhhfc9qIcgufuA3rE-91" value="" style="whiteSpace=wrap;html=1;aspect=fixed;rounded=0;strokeColor=default;fontFamily=Helvetica;fontSize=12;fontColor=default;fillColor=none;" vertex="1" parent="1">
          <mxGeometry x="840" y="680" width="20" height="20" as="geometry" />
        </mxCell>
        <mxCell id="eeTQhhfc9qIcgufuA3rE-92" value="" style="whiteSpace=wrap;html=1;aspect=fixed;rounded=0;strokeColor=default;fontFamily=Helvetica;fontSize=12;fontColor=default;fillColor=none;" vertex="1" parent="1">
          <mxGeometry x="860" y="680" width="20" height="20" as="geometry" />
        </mxCell>
        <mxCell id="eeTQhhfc9qIcgufuA3rE-93" value="" style="whiteSpace=wrap;html=1;aspect=fixed;rounded=0;strokeColor=default;fontFamily=Helvetica;fontSize=12;fontColor=default;fillColor=none;" vertex="1" parent="1">
          <mxGeometry x="880" y="680" width="20" height="20" as="geometry" />
        </mxCell>
        <mxCell id="eeTQhhfc9qIcgufuA3rE-94" value="" style="whiteSpace=wrap;html=1;aspect=fixed;rounded=0;strokeColor=default;fontFamily=Helvetica;fontSize=12;fontColor=default;fillColor=none;" vertex="1" parent="1">
          <mxGeometry x="900" y="680" width="20" height="20" as="geometry" />
        </mxCell>
        <mxCell id="eeTQhhfc9qIcgufuA3rE-95" value="" style="whiteSpace=wrap;html=1;aspect=fixed;rounded=0;strokeColor=default;fontFamily=Helvetica;fontSize=12;fontColor=default;fillColor=none;" vertex="1" parent="1">
          <mxGeometry x="920" y="680" width="20" height="20" as="geometry" />
        </mxCell>
        <mxCell id="eeTQhhfc9qIcgufuA3rE-96" value="" style="whiteSpace=wrap;html=1;aspect=fixed;rounded=0;strokeColor=default;fontFamily=Helvetica;fontSize=12;fontColor=default;fillColor=none;" vertex="1" parent="1">
          <mxGeometry x="940" y="680" width="20" height="20" as="geometry" />
        </mxCell>
        <mxCell id="eeTQhhfc9qIcgufuA3rE-97" value="" style="whiteSpace=wrap;html=1;aspect=fixed;rounded=0;strokeColor=default;fontFamily=Helvetica;fontSize=12;fontColor=default;fillColor=none;" vertex="1" parent="1">
          <mxGeometry x="960" y="680" width="20" height="20" as="geometry" />
        </mxCell>
        <mxCell id="eeTQhhfc9qIcgufuA3rE-98" value="" style="whiteSpace=wrap;html=1;aspect=fixed;rounded=0;strokeColor=default;fontFamily=Helvetica;fontSize=12;fontColor=default;fillColor=none;" vertex="1" parent="1">
          <mxGeometry x="820" y="700" width="20" height="20" as="geometry" />
        </mxCell>
        <mxCell id="eeTQhhfc9qIcgufuA3rE-99" value="" style="whiteSpace=wrap;html=1;aspect=fixed;rounded=0;strokeColor=default;fontFamily=Helvetica;fontSize=12;fontColor=default;fillColor=none;" vertex="1" parent="1">
          <mxGeometry x="840" y="700" width="20" height="20" as="geometry" />
        </mxCell>
        <mxCell id="eeTQhhfc9qIcgufuA3rE-100" value="" style="whiteSpace=wrap;html=1;aspect=fixed;rounded=0;strokeColor=default;fontFamily=Helvetica;fontSize=12;fontColor=default;fillColor=none;" vertex="1" parent="1">
          <mxGeometry x="860" y="700" width="20" height="20" as="geometry" />
        </mxCell>
        <mxCell id="eeTQhhfc9qIcgufuA3rE-101" value="" style="whiteSpace=wrap;html=1;aspect=fixed;rounded=0;strokeColor=default;fontFamily=Helvetica;fontSize=12;fontColor=default;fillColor=none;" vertex="1" parent="1">
          <mxGeometry x="880" y="700" width="20" height="20" as="geometry" />
        </mxCell>
        <mxCell id="eeTQhhfc9qIcgufuA3rE-102" value="" style="whiteSpace=wrap;html=1;aspect=fixed;rounded=0;strokeColor=default;fontFamily=Helvetica;fontSize=12;fontColor=default;fillColor=none;" vertex="1" parent="1">
          <mxGeometry x="900" y="700" width="20" height="20" as="geometry" />
        </mxCell>
        <mxCell id="eeTQhhfc9qIcgufuA3rE-103" value="" style="whiteSpace=wrap;html=1;aspect=fixed;rounded=0;strokeColor=default;fontFamily=Helvetica;fontSize=12;fontColor=default;fillColor=none;" vertex="1" parent="1">
          <mxGeometry x="920" y="700" width="20" height="20" as="geometry" />
        </mxCell>
        <mxCell id="eeTQhhfc9qIcgufuA3rE-104" value="" style="whiteSpace=wrap;html=1;aspect=fixed;rounded=0;strokeColor=default;fontFamily=Helvetica;fontSize=12;fontColor=default;fillColor=none;" vertex="1" parent="1">
          <mxGeometry x="940" y="700" width="20" height="20" as="geometry" />
        </mxCell>
        <mxCell id="eeTQhhfc9qIcgufuA3rE-105" value="" style="whiteSpace=wrap;html=1;aspect=fixed;rounded=0;strokeColor=default;fontFamily=Helvetica;fontSize=12;fontColor=default;fillColor=none;" vertex="1" parent="1">
          <mxGeometry x="960" y="700" width="20" height="20" as="geometry" />
        </mxCell>
        <mxCell id="eeTQhhfc9qIcgufuA3rE-106" value="" style="whiteSpace=wrap;html=1;aspect=fixed;rounded=0;strokeColor=default;fontFamily=Helvetica;fontSize=12;fontColor=default;fillColor=none;" vertex="1" parent="1">
          <mxGeometry x="820" y="720" width="20" height="20" as="geometry" />
        </mxCell>
        <mxCell id="eeTQhhfc9qIcgufuA3rE-107" value="" style="whiteSpace=wrap;html=1;aspect=fixed;rounded=0;strokeColor=default;fontFamily=Helvetica;fontSize=12;fontColor=default;fillColor=none;" vertex="1" parent="1">
          <mxGeometry x="840" y="720" width="20" height="20" as="geometry" />
        </mxCell>
        <mxCell id="eeTQhhfc9qIcgufuA3rE-108" value="" style="whiteSpace=wrap;html=1;aspect=fixed;rounded=0;strokeColor=default;fontFamily=Helvetica;fontSize=12;fontColor=default;fillColor=none;" vertex="1" parent="1">
          <mxGeometry x="860" y="720" width="20" height="20" as="geometry" />
        </mxCell>
        <mxCell id="eeTQhhfc9qIcgufuA3rE-109" value="" style="whiteSpace=wrap;html=1;aspect=fixed;rounded=0;strokeColor=default;fontFamily=Helvetica;fontSize=12;fontColor=default;fillColor=none;" vertex="1" parent="1">
          <mxGeometry x="880" y="720" width="20" height="20" as="geometry" />
        </mxCell>
        <mxCell id="eeTQhhfc9qIcgufuA3rE-110" value="" style="whiteSpace=wrap;html=1;aspect=fixed;rounded=0;strokeColor=default;fontFamily=Helvetica;fontSize=12;fontColor=default;fillColor=none;" vertex="1" parent="1">
          <mxGeometry x="900" y="720" width="20" height="20" as="geometry" />
        </mxCell>
        <mxCell id="eeTQhhfc9qIcgufuA3rE-111" value="" style="whiteSpace=wrap;html=1;aspect=fixed;rounded=0;strokeColor=default;fontFamily=Helvetica;fontSize=12;fontColor=default;fillColor=none;" vertex="1" parent="1">
          <mxGeometry x="920" y="720" width="20" height="20" as="geometry" />
        </mxCell>
        <mxCell id="eeTQhhfc9qIcgufuA3rE-112" value="" style="whiteSpace=wrap;html=1;aspect=fixed;rounded=0;strokeColor=default;fontFamily=Helvetica;fontSize=12;fontColor=default;fillColor=none;" vertex="1" parent="1">
          <mxGeometry x="940" y="720" width="20" height="20" as="geometry" />
        </mxCell>
        <mxCell id="eeTQhhfc9qIcgufuA3rE-113" value="" style="whiteSpace=wrap;html=1;aspect=fixed;rounded=0;strokeColor=default;fontFamily=Helvetica;fontSize=12;fontColor=default;fillColor=none;" vertex="1" parent="1">
          <mxGeometry x="960" y="720" width="20" height="20" as="geometry" />
        </mxCell>
        <mxCell id="eeTQhhfc9qIcgufuA3rE-114" value="" style="whiteSpace=wrap;html=1;aspect=fixed;rounded=0;strokeColor=default;fontFamily=Helvetica;fontSize=12;fontColor=default;fillColor=none;" vertex="1" parent="1">
          <mxGeometry x="820" y="740" width="20" height="20" as="geometry" />
        </mxCell>
        <mxCell id="eeTQhhfc9qIcgufuA3rE-115" value="" style="whiteSpace=wrap;html=1;aspect=fixed;rounded=0;strokeColor=default;fontFamily=Helvetica;fontSize=12;fontColor=default;fillColor=none;" vertex="1" parent="1">
          <mxGeometry x="840" y="740" width="20" height="20" as="geometry" />
        </mxCell>
        <mxCell id="eeTQhhfc9qIcgufuA3rE-116" value="" style="whiteSpace=wrap;html=1;aspect=fixed;rounded=0;strokeColor=default;fontFamily=Helvetica;fontSize=12;fontColor=default;fillColor=none;" vertex="1" parent="1">
          <mxGeometry x="860" y="740" width="20" height="20" as="geometry" />
        </mxCell>
        <mxCell id="eeTQhhfc9qIcgufuA3rE-117" value="" style="whiteSpace=wrap;html=1;aspect=fixed;rounded=0;strokeColor=default;fontFamily=Helvetica;fontSize=12;fontColor=default;fillColor=none;" vertex="1" parent="1">
          <mxGeometry x="880" y="740" width="20" height="20" as="geometry" />
        </mxCell>
        <mxCell id="eeTQhhfc9qIcgufuA3rE-118" value="" style="whiteSpace=wrap;html=1;aspect=fixed;rounded=0;strokeColor=default;fontFamily=Helvetica;fontSize=12;fontColor=default;fillColor=none;" vertex="1" parent="1">
          <mxGeometry x="900" y="740" width="20" height="20" as="geometry" />
        </mxCell>
        <mxCell id="eeTQhhfc9qIcgufuA3rE-119" value="" style="whiteSpace=wrap;html=1;aspect=fixed;rounded=0;strokeColor=default;fontFamily=Helvetica;fontSize=12;fontColor=default;fillColor=none;" vertex="1" parent="1">
          <mxGeometry x="920" y="740" width="20" height="20" as="geometry" />
        </mxCell>
        <mxCell id="eeTQhhfc9qIcgufuA3rE-120" value="" style="whiteSpace=wrap;html=1;aspect=fixed;rounded=0;strokeColor=default;fontFamily=Helvetica;fontSize=12;fontColor=default;fillColor=none;" vertex="1" parent="1">
          <mxGeometry x="940" y="740" width="20" height="20" as="geometry" />
        </mxCell>
        <mxCell id="eeTQhhfc9qIcgufuA3rE-121" value="" style="whiteSpace=wrap;html=1;aspect=fixed;rounded=0;strokeColor=default;fontFamily=Helvetica;fontSize=12;fontColor=default;fillColor=none;" vertex="1" parent="1">
          <mxGeometry x="960" y="740" width="20" height="20" as="geometry" />
        </mxCell>
        <mxCell id="eeTQhhfc9qIcgufuA3rE-122" value="" style="whiteSpace=wrap;html=1;aspect=fixed;rounded=0;strokeColor=default;fontFamily=Helvetica;fontSize=12;fontColor=default;fillColor=none;" vertex="1" parent="1">
          <mxGeometry x="820" y="760" width="20" height="20" as="geometry" />
        </mxCell>
        <mxCell id="eeTQhhfc9qIcgufuA3rE-123" value="" style="whiteSpace=wrap;html=1;aspect=fixed;rounded=0;strokeColor=default;fontFamily=Helvetica;fontSize=12;fontColor=default;fillColor=none;" vertex="1" parent="1">
          <mxGeometry x="840" y="760" width="20" height="20" as="geometry" />
        </mxCell>
        <mxCell id="eeTQhhfc9qIcgufuA3rE-124" value="" style="whiteSpace=wrap;html=1;aspect=fixed;rounded=0;strokeColor=default;fontFamily=Helvetica;fontSize=12;fontColor=default;fillColor=none;" vertex="1" parent="1">
          <mxGeometry x="860" y="760" width="20" height="20" as="geometry" />
        </mxCell>
        <mxCell id="eeTQhhfc9qIcgufuA3rE-125" value="" style="whiteSpace=wrap;html=1;aspect=fixed;rounded=0;strokeColor=default;fontFamily=Helvetica;fontSize=12;fontColor=default;fillColor=none;" vertex="1" parent="1">
          <mxGeometry x="880" y="760" width="20" height="20" as="geometry" />
        </mxCell>
        <mxCell id="eeTQhhfc9qIcgufuA3rE-126" value="" style="whiteSpace=wrap;html=1;aspect=fixed;rounded=0;strokeColor=default;fontFamily=Helvetica;fontSize=12;fontColor=default;fillColor=none;" vertex="1" parent="1">
          <mxGeometry x="900" y="760" width="20" height="20" as="geometry" />
        </mxCell>
        <mxCell id="eeTQhhfc9qIcgufuA3rE-127" value="" style="whiteSpace=wrap;html=1;aspect=fixed;rounded=0;strokeColor=default;fontFamily=Helvetica;fontSize=12;fontColor=default;fillColor=none;" vertex="1" parent="1">
          <mxGeometry x="920" y="760" width="20" height="20" as="geometry" />
        </mxCell>
        <mxCell id="eeTQhhfc9qIcgufuA3rE-128" value="" style="whiteSpace=wrap;html=1;aspect=fixed;rounded=0;strokeColor=default;fontFamily=Helvetica;fontSize=12;fontColor=default;fillColor=none;" vertex="1" parent="1">
          <mxGeometry x="940" y="760" width="20" height="20" as="geometry" />
        </mxCell>
        <mxCell id="eeTQhhfc9qIcgufuA3rE-129" value="" style="whiteSpace=wrap;html=1;aspect=fixed;rounded=0;strokeColor=default;fontFamily=Helvetica;fontSize=12;fontColor=default;fillColor=none;" vertex="1" parent="1">
          <mxGeometry x="960" y="760" width="20" height="20" as="geometry" />
        </mxCell>
        <mxCell id="eeTQhhfc9qIcgufuA3rE-130" value="" style="whiteSpace=wrap;html=1;aspect=fixed;rounded=0;strokeColor=default;fontFamily=Helvetica;fontSize=12;fontColor=default;fillColor=none;" vertex="1" parent="1">
          <mxGeometry x="820" y="780" width="20" height="20" as="geometry" />
        </mxCell>
        <mxCell id="eeTQhhfc9qIcgufuA3rE-131" value="" style="whiteSpace=wrap;html=1;aspect=fixed;rounded=0;strokeColor=default;fontFamily=Helvetica;fontSize=12;fontColor=default;fillColor=none;" vertex="1" parent="1">
          <mxGeometry x="840" y="780" width="20" height="20" as="geometry" />
        </mxCell>
        <mxCell id="eeTQhhfc9qIcgufuA3rE-132" value="" style="whiteSpace=wrap;html=1;aspect=fixed;rounded=0;strokeColor=default;fontFamily=Helvetica;fontSize=12;fontColor=default;fillColor=none;" vertex="1" parent="1">
          <mxGeometry x="860" y="780" width="20" height="20" as="geometry" />
        </mxCell>
        <mxCell id="eeTQhhfc9qIcgufuA3rE-133" value="" style="whiteSpace=wrap;html=1;aspect=fixed;rounded=0;strokeColor=default;fontFamily=Helvetica;fontSize=12;fontColor=default;fillColor=none;" vertex="1" parent="1">
          <mxGeometry x="880" y="780" width="20" height="20" as="geometry" />
        </mxCell>
        <mxCell id="eeTQhhfc9qIcgufuA3rE-134" value="" style="whiteSpace=wrap;html=1;aspect=fixed;rounded=0;strokeColor=default;fontFamily=Helvetica;fontSize=12;fontColor=default;fillColor=none;" vertex="1" parent="1">
          <mxGeometry x="900" y="780" width="20" height="20" as="geometry" />
        </mxCell>
        <mxCell id="eeTQhhfc9qIcgufuA3rE-135" value="" style="whiteSpace=wrap;html=1;aspect=fixed;rounded=0;strokeColor=default;fontFamily=Helvetica;fontSize=12;fontColor=default;fillColor=none;" vertex="1" parent="1">
          <mxGeometry x="920" y="780" width="20" height="20" as="geometry" />
        </mxCell>
        <mxCell id="eeTQhhfc9qIcgufuA3rE-136" value="" style="whiteSpace=wrap;html=1;aspect=fixed;rounded=0;strokeColor=default;fontFamily=Helvetica;fontSize=12;fontColor=default;fillColor=none;" vertex="1" parent="1">
          <mxGeometry x="940" y="780" width="20" height="20" as="geometry" />
        </mxCell>
        <mxCell id="eeTQhhfc9qIcgufuA3rE-137" value="" style="whiteSpace=wrap;html=1;aspect=fixed;rounded=0;strokeColor=default;fontFamily=Helvetica;fontSize=12;fontColor=default;fillColor=none;" vertex="1" parent="1">
          <mxGeometry x="960" y="780" width="20" height="20" as="geometry" />
        </mxCell>
        <mxCell id="eeTQhhfc9qIcgufuA3rE-138" value="" style="whiteSpace=wrap;html=1;aspect=fixed;rounded=0;strokeColor=default;fontFamily=Helvetica;fontSize=12;fontColor=default;fillColor=none;" vertex="1" parent="1">
          <mxGeometry x="820" y="800" width="20" height="20" as="geometry" />
        </mxCell>
        <mxCell id="eeTQhhfc9qIcgufuA3rE-139" value="" style="whiteSpace=wrap;html=1;aspect=fixed;rounded=0;strokeColor=default;fontFamily=Helvetica;fontSize=12;fontColor=default;fillColor=none;" vertex="1" parent="1">
          <mxGeometry x="840" y="800" width="20" height="20" as="geometry" />
        </mxCell>
        <mxCell id="eeTQhhfc9qIcgufuA3rE-140" value="" style="whiteSpace=wrap;html=1;aspect=fixed;rounded=0;strokeColor=default;fontFamily=Helvetica;fontSize=12;fontColor=default;fillColor=none;" vertex="1" parent="1">
          <mxGeometry x="860" y="800" width="20" height="20" as="geometry" />
        </mxCell>
        <mxCell id="eeTQhhfc9qIcgufuA3rE-141" value="" style="whiteSpace=wrap;html=1;aspect=fixed;rounded=0;strokeColor=default;fontFamily=Helvetica;fontSize=12;fontColor=default;fillColor=none;" vertex="1" parent="1">
          <mxGeometry x="880" y="800" width="20" height="20" as="geometry" />
        </mxCell>
        <mxCell id="eeTQhhfc9qIcgufuA3rE-142" value="" style="whiteSpace=wrap;html=1;aspect=fixed;rounded=0;strokeColor=default;fontFamily=Helvetica;fontSize=12;fontColor=default;fillColor=none;" vertex="1" parent="1">
          <mxGeometry x="900" y="800" width="20" height="20" as="geometry" />
        </mxCell>
        <mxCell id="eeTQhhfc9qIcgufuA3rE-143" value="" style="whiteSpace=wrap;html=1;aspect=fixed;rounded=0;strokeColor=default;fontFamily=Helvetica;fontSize=12;fontColor=default;fillColor=none;" vertex="1" parent="1">
          <mxGeometry x="920" y="800" width="20" height="20" as="geometry" />
        </mxCell>
        <mxCell id="eeTQhhfc9qIcgufuA3rE-144" value="" style="whiteSpace=wrap;html=1;aspect=fixed;rounded=0;strokeColor=default;fontFamily=Helvetica;fontSize=12;fontColor=default;fillColor=none;" vertex="1" parent="1">
          <mxGeometry x="940" y="800" width="20" height="20" as="geometry" />
        </mxCell>
        <mxCell id="eeTQhhfc9qIcgufuA3rE-145" value="" style="whiteSpace=wrap;html=1;aspect=fixed;rounded=0;strokeColor=default;fontFamily=Helvetica;fontSize=12;fontColor=default;fillColor=none;" vertex="1" parent="1">
          <mxGeometry x="960" y="800" width="20" height="20" as="geometry" />
        </mxCell>
        <mxCell id="eeTQhhfc9qIcgufuA3rE-146" value="" style="whiteSpace=wrap;html=1;aspect=fixed;rounded=0;strokeColor=default;fontFamily=Helvetica;fontSize=12;fontColor=default;fillColor=none;" vertex="1" parent="1">
          <mxGeometry x="820" y="820" width="20" height="20" as="geometry" />
        </mxCell>
        <mxCell id="eeTQhhfc9qIcgufuA3rE-147" value="" style="whiteSpace=wrap;html=1;aspect=fixed;rounded=0;strokeColor=default;fontFamily=Helvetica;fontSize=12;fontColor=default;fillColor=none;" vertex="1" parent="1">
          <mxGeometry x="840" y="820" width="20" height="20" as="geometry" />
        </mxCell>
        <mxCell id="eeTQhhfc9qIcgufuA3rE-148" value="" style="whiteSpace=wrap;html=1;aspect=fixed;rounded=0;strokeColor=default;fontFamily=Helvetica;fontSize=12;fontColor=default;fillColor=none;" vertex="1" parent="1">
          <mxGeometry x="860" y="820" width="20" height="20" as="geometry" />
        </mxCell>
        <mxCell id="eeTQhhfc9qIcgufuA3rE-149" value="" style="whiteSpace=wrap;html=1;aspect=fixed;rounded=0;strokeColor=default;fontFamily=Helvetica;fontSize=12;fontColor=default;fillColor=none;" vertex="1" parent="1">
          <mxGeometry x="880" y="820" width="20" height="20" as="geometry" />
        </mxCell>
        <mxCell id="eeTQhhfc9qIcgufuA3rE-150" value="" style="whiteSpace=wrap;html=1;aspect=fixed;rounded=0;strokeColor=default;fontFamily=Helvetica;fontSize=12;fontColor=default;fillColor=none;" vertex="1" parent="1">
          <mxGeometry x="900" y="820" width="20" height="20" as="geometry" />
        </mxCell>
        <mxCell id="eeTQhhfc9qIcgufuA3rE-151" value="" style="whiteSpace=wrap;html=1;aspect=fixed;rounded=0;strokeColor=default;fontFamily=Helvetica;fontSize=12;fontColor=default;fillColor=none;" vertex="1" parent="1">
          <mxGeometry x="920" y="820" width="20" height="20" as="geometry" />
        </mxCell>
        <mxCell id="eeTQhhfc9qIcgufuA3rE-152" value="" style="whiteSpace=wrap;html=1;aspect=fixed;rounded=0;strokeColor=default;fontFamily=Helvetica;fontSize=12;fontColor=default;fillColor=none;" vertex="1" parent="1">
          <mxGeometry x="940" y="820" width="20" height="20" as="geometry" />
        </mxCell>
        <mxCell id="eeTQhhfc9qIcgufuA3rE-153" value="" style="whiteSpace=wrap;html=1;aspect=fixed;rounded=0;strokeColor=default;fontFamily=Helvetica;fontSize=12;fontColor=default;fillColor=none;" vertex="1" parent="1">
          <mxGeometry x="960" y="820" width="20" height="20" as="geometry" />
        </mxCell>
        <mxCell id="eeTQhhfc9qIcgufuA3rE-154" value="" style="ellipse;whiteSpace=wrap;html=1;aspect=fixed;rounded=0;strokeColor=default;fontFamily=Helvetica;fontSize=12;fontColor=default;fillColor=#000000;" vertex="1" parent="1">
          <mxGeometry x="882.5" y="742" width="15" height="15" as="geometry" />
        </mxCell>
        <mxCell id="eeTQhhfc9qIcgufuA3rE-155" value="" style="ellipse;whiteSpace=wrap;html=1;aspect=fixed;rounded=0;strokeColor=default;fontFamily=Helvetica;fontSize=12;fontColor=default;fillColor=#000000;" vertex="1" parent="1">
          <mxGeometry x="902.5" y="762.5" width="15" height="15" as="geometry" />
        </mxCell>
        <mxCell id="eeTQhhfc9qIcgufuA3rE-157" value="" style="ellipse;whiteSpace=wrap;html=1;aspect=fixed;rounded=0;strokeColor=default;fontFamily=Helvetica;fontSize=12;fontColor=default;fillColor=none;" vertex="1" parent="1">
          <mxGeometry x="902.5" y="742.5" width="15" height="15" as="geometry" />
        </mxCell>
        <mxCell id="eeTQhhfc9qIcgufuA3rE-158" value="" style="ellipse;whiteSpace=wrap;html=1;aspect=fixed;rounded=0;strokeColor=default;fontFamily=Helvetica;fontSize=12;fontColor=default;fillColor=#000000;" vertex="1" parent="1">
          <mxGeometry x="882" y="763" width="15" height="15" as="geometry" />
        </mxCell>
        <mxCell id="eeTQhhfc9qIcgufuA3rE-159" value="" style="ellipse;whiteSpace=wrap;html=1;aspect=fixed;rounded=0;strokeColor=default;fontFamily=Helvetica;fontSize=12;fontColor=default;fillColor=#000000;" vertex="1" parent="1">
          <mxGeometry x="882" y="783" width="15" height="15" as="geometry" />
        </mxCell>
        <mxCell id="eeTQhhfc9qIcgufuA3rE-162" style="edgeStyle=orthogonalEdgeStyle;orthogonalLoop=1;jettySize=auto;html=1;exitX=0.25;exitY=1;exitDx=0;exitDy=0;curved=1;strokeWidth=2;dashed=1;" edge="1" parent="1">
          <mxGeometry relative="1" as="geometry">
            <mxPoint x="570" y="660" as="targetPoint" />
            <mxPoint x="810" y="760" as="sourcePoint" />
            <Array as="points">
              <mxPoint x="570" y="760" />
            </Array>
          </mxGeometry>
        </mxCell>
        <mxCell id="eeTQhhfc9qIcgufuA3rE-163" value="" style="rounded=0;whiteSpace=wrap;html=1;fillColor=none;strokeWidth=4;" vertex="1" parent="1">
          <mxGeometry x="480" y="410" width="1200" height="600" as="geometry" />
        </mxCell>
      </root>
    </mxGraphModel>
  </diagram>
</mxfile>
